<svg width="16" height="16" viewBox="0 0 16 16" fill="none" xmlns="http://www.w3.org/2000/svg">
<g clip-path="url(#clip0_1325_4)">
<g filter="url(#filter0_d_1325_4)">
<rect x="1" y="1" width="14" height="14" rx="7" fill="#0E0D0B"/>
</g>
<g filter="url(#filter1_d_1325_4)">
<path d="M7.27192 4.97538C7.42705 4.97538 7.60051 4.98949 7.79231 5.01769C7.9841 5.0459 8.18154 5.08115 8.38462 5.12346C8.58769 5.16577 8.78372 5.20808 8.97269 5.25038C9.16167 5.29269 9.33231 5.32936 9.48462 5.36038C9.63692 5.38859 9.75821 5.40269 9.84846 5.40269C9.95282 5.40269 10.0332 5.38577 10.0896 5.35192C10.1488 5.31526 10.1897 5.26449 10.2123 5.19961C10.2292 5.14885 10.2377 5.09808 10.2377 5.04731C10.2405 4.99654 10.2447 4.94436 10.2504 4.89077C10.2673 4.79205 10.3068 4.71167 10.3688 4.64961C10.4337 4.58474 10.5282 4.55231 10.6523 4.55231C10.7567 4.55231 10.8427 4.58897 10.9104 4.66231C10.9781 4.73564 11.0119 4.84705 11.0119 4.99654C11.0091 5.23628 10.9245 5.42949 10.7581 5.57615C10.5917 5.72 10.3674 5.79192 10.0854 5.79192C9.96128 5.79192 9.80756 5.775 9.62423 5.74115C9.44372 5.70731 9.24769 5.66641 9.03615 5.61846C8.82744 5.56769 8.6159 5.51833 8.40154 5.47038C8.19 5.41961 7.99115 5.37731 7.805 5.34346C7.61885 5.30961 7.4609 5.29269 7.33115 5.29269C7.08859 5.29269 6.91654 5.33218 6.815 5.41115C6.71346 5.49013 6.65987 5.5959 6.65423 5.72846C6.65141 5.79333 6.65846 5.85256 6.67538 5.90615C6.69513 5.95692 6.71487 6.00769 6.73462 6.05846C6.75436 6.10923 6.76282 6.16564 6.76 6.22769C6.76 6.32359 6.72333 6.40679 6.65 6.47731C6.57949 6.54782 6.485 6.58167 6.36654 6.57885C6.23115 6.57885 6.12256 6.52667 6.04077 6.42231C5.95897 6.31513 5.92231 6.17128 5.93077 5.99077C5.93641 5.79615 5.99 5.62269 6.09154 5.47038C6.1959 5.31526 6.3468 5.19397 6.54423 5.10654C6.74167 5.0191 6.98423 4.97538 7.27192 4.97538ZM7.70346 10.3696C7.6809 10.4458 7.68231 10.5022 7.70769 10.5388C7.73308 10.5755 7.77539 10.6009 7.83462 10.615L8.14769 10.6785C8.25205 10.7123 8.29859 10.7645 8.28731 10.835C8.27885 10.8914 8.25064 10.9337 8.20269 10.9619C8.15756 10.9873 8.09692 11 8.02077 11H6.20154C6.12821 11 6.07462 10.9859 6.04077 10.9577C6.00692 10.9295 5.99141 10.8928 5.99423 10.8477C5.99705 10.7997 6.0168 10.7617 6.05346 10.7335C6.09013 10.7024 6.13949 10.6785 6.20154 10.6615L6.49346 10.6065C6.56397 10.5924 6.6218 10.5628 6.66692 10.5177C6.71205 10.4697 6.75013 10.3978 6.78115 10.3019C6.81782 10.1806 6.86577 10.0156 6.925 9.80692C6.98423 9.5982 7.05051 9.35987 7.12385 9.09192C7.19718 8.82397 7.27474 8.54192 7.35654 8.24577C7.44115 7.94679 7.52295 7.64782 7.60192 7.34885C7.68372 7.04705 7.76128 6.76077 7.83462 6.49C7.91077 6.21641 7.97846 5.97102 8.03769 5.75385C8.09974 5.53385 8.1491 5.35756 8.18577 5.225L9.06154 5.39423C9.02205 5.52961 8.97128 5.70731 8.90923 5.92731C8.84718 6.14449 8.77949 6.38987 8.70615 6.66346C8.63282 6.93423 8.55526 7.2191 8.47346 7.51808C8.39167 7.81423 8.31128 8.10897 8.23231 8.40231C8.15333 8.69282 8.07859 8.96782 8.00808 9.22731C7.94039 9.48679 7.87974 9.71667 7.82615 9.91692C7.77256 10.1144 7.73167 10.2653 7.70346 10.3696Z" fill="#E8FF5C"/>
</g>
</g>
<defs>
<filter id="filter0_d_1325_4" x="-11" y="-11" width="38" height="38" filterUnits="userSpaceOnUse" color-interpolation-filters="sRGB">
<feFlood flood-opacity="0" result="BackgroundImageFix"/>
<feColorMatrix in="SourceAlpha" type="matrix" values="0 0 0 0 0 0 0 0 0 0 0 0 0 0 0 0 0 0 127 0" result="hardAlpha"/>
<feOffset/>
<feGaussianBlur stdDeviation="6"/>
<feComposite in2="hardAlpha" operator="out"/>
<feColorMatrix type="matrix" values="0 0 0 0 0.909804 0 0 0 0 1 0 0 0 0 0.360784 0 0 0 1 0"/>
<feBlend mode="normal" in2="BackgroundImageFix" result="effect1_dropShadow_1325_4"/>
<feBlend mode="normal" in="SourceGraphic" in2="effect1_dropShadow_1325_4" result="shape"/>
</filter>
<filter id="filter1_d_1325_4" x="4.91797" y="3.55231" width="7.09399" height="8.44769" filterUnits="userSpaceOnUse" color-interpolation-filters="sRGB">
<feFlood flood-opacity="0" result="BackgroundImageFix"/>
<feColorMatrix in="SourceAlpha" type="matrix" values="0 0 0 0 0 0 0 0 0 0 0 0 0 0 0 0 0 0 127 0" result="hardAlpha"/>
<feOffset/>
<feGaussianBlur stdDeviation="0.5"/>
<feComposite in2="hardAlpha" operator="out"/>
<feColorMatrix type="matrix" values="0 0 0 0 0.909804 0 0 0 0 1 0 0 0 0 0.360784 0 0 0 1 0"/>
<feBlend mode="normal" in2="BackgroundImageFix" result="effect1_dropShadow_1325_4"/>
<feBlend mode="normal" in="SourceGraphic" in2="effect1_dropShadow_1325_4" result="shape"/>
</filter>
<clipPath id="clip0_1325_4">
<rect width="16" height="16" fill="white"/>
</clipPath>
</defs>
</svg>
