<svg width="16" height="16" viewBox="0 0 16 16" fill="none" xmlns="http://www.w3.org/2000/svg">
<g clip-path="url(#clip0_1325_4)">
<g filter="url(#filter0_d_1325_4)">
<mask id="path-1-outside-1_1325_4" maskUnits="userSpaceOnUse" x="3" y="3" width="11" height="11" fill="black">
<rect fill="white" x="3" y="3" width="11" height="11"/>
<path d="M7.4165 5.592C7.5815 5.592 7.766 5.607 7.97 5.637C8.174 5.667 8.384 5.7045 8.6 5.7495C8.816 5.7945 9.0245 5.8395 9.2255 5.8845C9.4265 5.9295 9.608 5.9685 9.77 6.0015C9.932 6.0315 10.061 6.0465 10.157 6.0465C10.268 6.0465 10.3535 6.0285 10.4135 5.9925C10.4765 5.9535 10.52 5.8995 10.544 5.8305C10.562 5.7765 10.571 5.7225 10.571 5.6685C10.574 5.6145 10.5785 5.559 10.5845 5.502C10.6025 5.397 10.6445 5.3115 10.7105 5.2455C10.7795 5.1765 10.88 5.142 11.012 5.142C11.123 5.142 11.2145 5.181 11.2865 5.259C11.3585 5.337 11.3945 5.4555 11.3945 5.6145C11.3915 5.8695 11.3015 6.075 11.1245 6.231C10.9475 6.384 10.709 6.4605 10.409 6.4605C10.277 6.4605 10.1135 6.4425 9.9185 6.4065C9.7265 6.3705 9.518 6.327 9.293 6.276C9.071 6.222 8.846 6.1695 8.618 6.1185C8.393 6.0645 8.1815 6.0195 7.9835 5.9835C7.7855 5.9475 7.6175 5.9295 7.4795 5.9295C7.2215 5.9295 7.0385 5.9715 6.9305 6.0555C6.8225 6.1395 6.7655 6.252 6.7595 6.393C6.7565 6.462 6.764 6.525 6.782 6.582C6.803 6.636 6.824 6.69 6.845 6.744C6.866 6.798 6.875 6.858 6.872 6.924C6.872 7.026 6.833 7.1145 6.755 7.1895C6.68 7.2645 6.5795 7.3005 6.4535 7.2975C6.3095 7.2975 6.194 7.242 6.107 7.131C6.02 7.017 5.981 6.864 5.99 6.672C5.996 6.465 6.053 6.2805 6.161 6.1185C6.272 5.9535 6.4325 5.8245 6.6425 5.7315C6.8525 5.6385 7.1105 5.592 7.4165 5.592ZM7.8755 11.3295C7.8515 11.4105 7.853 11.4705 7.88 11.5095C7.907 11.5485 7.952 11.5755 8.015 11.5905L8.348 11.658C8.459 11.694 8.5085 11.7495 8.4965 11.8245C8.4875 11.8845 8.4575 11.9295 8.4065 11.9595C8.3585 11.9865 8.294 12 8.213 12H6.278C6.2 12 6.143 11.985 6.107 11.955C6.071 11.925 6.0545 11.886 6.0575 11.838C6.0605 11.787 6.0815 11.7465 6.1205 11.7165C6.1595 11.6835 6.212 11.658 6.278 11.64L6.5885 11.5815C6.6635 11.5665 6.725 11.535 6.773 11.487C6.821 11.436 6.8615 11.3595 6.8945 11.2575C6.9335 11.1285 6.9845 10.953 7.0475 10.731C7.1105 10.509 7.181 10.2555 7.259 9.9705C7.337 9.6855 7.4195 9.3855 7.5065 9.0705C7.5965 8.7525 7.6835 8.4345 7.7675 8.1165C7.8545 7.7955 7.937 7.491 8.015 7.203C8.096 6.912 8.168 6.651 8.231 6.42C8.297 6.186 8.3495 5.9985 8.3885 5.8575L9.32 6.0375C9.278 6.1815 9.224 6.3705 9.158 6.6045C9.092 6.8355 9.02 7.0965 8.942 7.3875C8.864 7.6755 8.7815 7.9785 8.6945 8.2965C8.6075 8.6115 8.522 8.925 8.438 9.237C8.354 9.546 8.2745 9.8385 8.1995 10.1145C8.1275 10.3905 8.063 10.635 8.006 10.848C7.949 11.058 7.9055 11.2185 7.8755 11.3295Z"/>
</mask>
<path d="M7.4165 5.592C7.5815 5.592 7.766 5.607 7.97 5.637C8.174 5.667 8.384 5.7045 8.6 5.7495C8.816 5.7945 9.0245 5.8395 9.2255 5.8845C9.4265 5.9295 9.608 5.9685 9.77 6.0015C9.932 6.0315 10.061 6.0465 10.157 6.0465C10.268 6.0465 10.3535 6.0285 10.4135 5.9925C10.4765 5.9535 10.52 5.8995 10.544 5.8305C10.562 5.7765 10.571 5.7225 10.571 5.6685C10.574 5.6145 10.5785 5.559 10.5845 5.502C10.6025 5.397 10.6445 5.3115 10.7105 5.2455C10.7795 5.1765 10.88 5.142 11.012 5.142C11.123 5.142 11.2145 5.181 11.2865 5.259C11.3585 5.337 11.3945 5.4555 11.3945 5.6145C11.3915 5.8695 11.3015 6.075 11.1245 6.231C10.9475 6.384 10.709 6.4605 10.409 6.4605C10.277 6.4605 10.1135 6.4425 9.9185 6.4065C9.7265 6.3705 9.518 6.327 9.293 6.276C9.071 6.222 8.846 6.1695 8.618 6.1185C8.393 6.0645 8.1815 6.0195 7.9835 5.9835C7.7855 5.9475 7.6175 5.9295 7.4795 5.9295C7.2215 5.9295 7.0385 5.9715 6.9305 6.0555C6.8225 6.1395 6.7655 6.252 6.7595 6.393C6.7565 6.462 6.764 6.525 6.782 6.582C6.803 6.636 6.824 6.69 6.845 6.744C6.866 6.798 6.875 6.858 6.872 6.924C6.872 7.026 6.833 7.1145 6.755 7.1895C6.68 7.2645 6.5795 7.3005 6.4535 7.2975C6.3095 7.2975 6.194 7.242 6.107 7.131C6.02 7.017 5.981 6.864 5.99 6.672C5.996 6.465 6.053 6.2805 6.161 6.1185C6.272 5.9535 6.4325 5.8245 6.6425 5.7315C6.8525 5.6385 7.1105 5.592 7.4165 5.592ZM7.8755 11.3295C7.8515 11.4105 7.853 11.4705 7.88 11.5095C7.907 11.5485 7.952 11.5755 8.015 11.5905L8.348 11.658C8.459 11.694 8.5085 11.7495 8.4965 11.8245C8.4875 11.8845 8.4575 11.9295 8.4065 11.9595C8.3585 11.9865 8.294 12 8.213 12H6.278C6.2 12 6.143 11.985 6.107 11.955C6.071 11.925 6.0545 11.886 6.0575 11.838C6.0605 11.787 6.0815 11.7465 6.1205 11.7165C6.1595 11.6835 6.212 11.658 6.278 11.64L6.5885 11.5815C6.6635 11.5665 6.725 11.535 6.773 11.487C6.821 11.436 6.8615 11.3595 6.8945 11.2575C6.9335 11.1285 6.9845 10.953 7.0475 10.731C7.1105 10.509 7.181 10.2555 7.259 9.9705C7.337 9.6855 7.4195 9.3855 7.5065 9.0705C7.5965 8.7525 7.6835 8.4345 7.7675 8.1165C7.8545 7.7955 7.937 7.491 8.015 7.203C8.096 6.912 8.168 6.651 8.231 6.42C8.297 6.186 8.3495 5.9985 8.3885 5.8575L9.32 6.0375C9.278 6.1815 9.224 6.3705 9.158 6.6045C9.092 6.8355 9.02 7.0965 8.942 7.3875C8.864 7.6755 8.7815 7.9785 8.6945 8.2965C8.6075 8.6115 8.522 8.925 8.438 9.237C8.354 9.546 8.2745 9.8385 8.1995 10.1145C8.1275 10.3905 8.063 10.635 8.006 10.848C7.949 11.058 7.9055 11.2185 7.8755 11.3295Z" fill="#E8FF5C"/>
<path d="M8.6 5.7495L8.19209 7.70746L8.19209 7.70746L8.6 5.7495ZM9.2255 5.8845L9.66244 3.93281V3.93281L9.2255 5.8845ZM9.77 6.0015L9.37079 7.96125L9.38828 7.96481L9.40582 7.96806L9.77 6.0015ZM10.4135 5.9925L11.4425 7.70749L11.4544 7.70034L11.4662 7.69303L10.4135 5.9925ZM10.544 5.8305L12.433 6.48754L12.4373 6.47527L12.4414 6.46295L10.544 5.8305ZM10.571 5.6685L8.57408 5.55755L8.571 5.61298V5.6685H10.571ZM10.5845 5.502L8.61326 5.16407L8.60229 5.22806L8.59549 5.29263L10.5845 5.502ZM11.2865 5.259L9.81689 6.61556L9.8169 6.61556L11.2865 5.259ZM11.3945 5.6145L13.3944 5.63803L13.3945 5.62626V5.6145H11.3945ZM11.1245 6.231L12.4324 7.74407L12.4397 7.73778L12.4469 7.73142L11.1245 6.231ZM9.9185 6.4065L9.54992 8.37225L9.55541 8.37326L9.9185 6.4065ZM9.293 6.276L8.8203 8.21933L8.83556 8.22305L8.85088 8.22652L9.293 6.276ZM8.618 6.1185L8.15125 8.06327L8.16631 8.06689L8.18142 8.07027L8.618 6.1185ZM7.9835 5.9835L7.62573 7.95124L7.62573 7.95124L7.9835 5.9835ZM6.7595 6.393L8.75761 6.47988L8.75769 6.47803L6.7595 6.393ZM6.782 6.582L4.87484 7.18427L4.89442 7.24628L4.91799 7.30689L6.782 6.582ZM6.872 6.924L4.87406 6.83318L4.872 6.87857V6.924H6.872ZM6.755 7.1895L5.36878 5.74784L5.35465 5.76142L5.34079 5.77529L6.755 7.1895ZM6.4535 7.2975L6.50111 5.29807L6.47731 5.2975H6.4535V7.2975ZM6.107 7.131L4.5171 8.34435L4.52493 8.35461L4.53289 8.36476L6.107 7.131ZM5.99 6.672L7.98781 6.76565L7.98864 6.7478L7.98916 6.72995L5.99 6.672ZM6.161 6.1185L4.50154 5.00214L4.4969 5.0091L6.161 6.1185ZM6.6425 5.7315L7.45235 7.5602L7.45235 7.5602L6.6425 5.7315ZM7.8755 11.3295L9.7931 11.8977L9.79994 11.8746L9.80623 11.8513L7.8755 11.3295ZM8.015 11.5905L7.55176 13.5361L7.58459 13.5439L7.61768 13.5506L8.015 11.5905ZM8.348 11.658L8.96501 9.75555L8.85681 9.72046L8.74532 9.69786L8.348 11.658ZM8.4965 11.8245L6.52162 11.5085L6.52008 11.5182L6.51863 11.5278L8.4965 11.8245ZM8.4065 11.9595L9.38702 13.7027L9.40387 13.6932L9.42054 13.6834L8.4065 11.9595ZM6.107 11.955L4.82663 13.4914L4.82663 13.4914L6.107 11.955ZM6.0575 11.838L8.05362 11.9628L8.05405 11.9554L6.0575 11.838ZM6.1205 11.7165L7.33992 13.3017L7.37683 13.2734L7.41238 13.2433L6.1205 11.7165ZM6.278 11.64L5.9077 9.67458L5.82902 9.6894L5.75176 9.71047L6.278 11.64ZM6.5885 11.5815L6.9588 13.5469L6.96978 13.5449L6.98073 13.5427L6.5885 11.5815ZM6.773 11.487L8.18721 12.9012L8.20864 12.8798L8.2294 12.8577L6.773 11.487ZM6.8945 11.2575L8.79739 11.8731L8.80333 11.8548L8.80892 11.8363L6.8945 11.2575ZM7.259 9.9705L9.18806 10.4985V10.4985L7.259 9.9705ZM7.5065 9.0705L5.58205 8.52584L5.57868 8.53805L7.5065 9.0705ZM7.7675 8.1165L5.8371 7.59331L5.83382 7.60572L7.7675 8.1165ZM8.015 7.203L6.0882 6.66667L6.08455 6.68017L8.015 7.203ZM8.231 6.42L6.3061 5.87708L6.30375 5.88541L6.30147 5.89376L8.231 6.42ZM8.3885 5.8575L8.76795 3.89383L6.95353 3.54321L6.46088 5.32433L8.3885 5.8575ZM9.32 6.0375L11.24 6.5975L11.8546 4.49028L9.69945 4.07383L9.32 6.0375ZM9.158 6.6045L11.0811 7.15394L11.0829 7.14742L9.158 6.6045ZM8.942 7.3875L10.8725 7.91033L10.8738 7.9053L8.942 7.3875ZM8.6945 8.2965L10.6223 8.82895L10.6236 8.82427L8.6945 8.2965ZM8.438 9.237L10.368 9.76165L10.3692 9.75695L8.438 9.237ZM8.1995 10.1145L6.26949 9.59004L6.26683 9.59983L6.26427 9.60966L8.1995 10.1145ZM8.006 10.848L9.93617 11.3719L9.93802 11.365L8.006 10.848ZM7.4165 5.592V7.592C7.46362 7.592 7.5487 7.59655 7.67901 7.61572L7.97 5.637L8.26099 3.65828C7.9833 3.61744 7.69938 3.592 7.4165 3.592V5.592ZM7.97 5.637L7.67901 7.61572C7.84123 7.63957 8.01218 7.66998 8.19209 7.70746L8.6 5.7495L9.00791 3.79154C8.75582 3.73902 8.50677 3.69443 8.26099 3.65828L7.97 5.637ZM8.6 5.7495L8.19209 7.70746C8.39908 7.75058 8.59787 7.7935 8.78856 7.83619L9.2255 5.8845L9.66244 3.93281C9.45113 3.8855 9.23292 3.83842 9.00791 3.79154L8.6 5.7495ZM9.2255 5.8845L8.78856 7.83619C8.99921 7.88335 9.19358 7.92515 9.37079 7.96125L9.77 6.0015L10.1692 4.04175C10.0224 4.01185 9.85379 3.97565 9.66244 3.93281L9.2255 5.8845ZM9.77 6.0015L9.40582 7.96806C9.61581 8.00695 9.88258 8.0465 10.157 8.0465V6.0465V4.0465C10.1842 4.0465 10.2031 4.04753 10.2119 4.04812C10.2209 4.04872 10.2237 4.04915 10.2193 4.04864C10.215 4.04814 10.2057 4.04696 10.191 4.04468C10.1763 4.04241 10.1575 4.03925 10.1342 4.03494L9.77 6.0015ZM10.157 6.0465V8.0465C10.4374 8.0465 10.9398 8.0091 11.4425 7.70749L10.4135 5.9925L9.38451 4.27751C9.58597 4.15664 9.7693 4.10181 9.89236 4.0759C10.0157 4.04994 10.1093 4.0465 10.157 4.0465V6.0465ZM10.4135 5.9925L11.4662 7.69303C11.9134 7.4162 12.2559 6.9967 12.433 6.48754L10.544 5.8305L8.65501 5.17346C8.78411 4.8023 9.03961 4.4908 9.36079 4.29197L10.4135 5.9925ZM10.544 5.8305L12.4414 6.46295C12.5236 6.21611 12.571 5.94885 12.571 5.6685H10.571H8.571C8.571 5.49615 8.60035 5.33689 8.64663 5.19805L10.544 5.8305ZM10.571 5.6685L12.5679 5.77944C12.569 5.76019 12.5708 5.73756 12.5735 5.71137L10.5845 5.502L8.59549 5.29263C8.58625 5.38044 8.57901 5.46881 8.57408 5.55755L10.571 5.6685ZM10.5845 5.502L12.5557 5.83993C12.5141 6.08289 12.3914 6.39305 12.1247 6.65971L10.7105 5.2455L9.29629 3.83129C8.89762 4.22995 8.69091 4.71111 8.61326 5.16407L10.5845 5.502ZM10.7105 5.2455L12.1247 6.65971C11.7016 7.08281 11.2181 7.142 11.012 7.142V5.142V3.142C10.5419 3.142 9.85739 3.27019 9.29629 3.83129L10.7105 5.2455ZM11.012 5.142V7.142C10.8293 7.142 10.6091 7.10889 10.3797 7.0111C10.1482 6.91242 9.95953 6.77009 9.81689 6.61556L11.2865 5.259L12.7561 3.90244C12.2864 3.3936 11.6524 3.142 11.012 3.142V5.142ZM11.2865 5.259L9.8169 6.61556C9.41199 6.17692 9.3945 5.71368 9.3945 5.6145H11.3945H13.3945C13.3945 5.19731 13.305 4.49708 12.7561 3.90244L11.2865 5.259ZM11.3945 5.6145L9.39464 5.59097C9.39586 5.48675 9.41639 5.33188 9.49274 5.15753C9.57073 4.97947 9.68344 4.83516 9.8021 4.73058L11.1245 6.231L12.4469 7.73142C13.0856 7.16848 13.3853 6.40761 13.3944 5.63803L11.3945 5.6145ZM11.1245 6.231L9.81659 4.71793C10.0958 4.47654 10.3677 4.4605 10.409 4.4605V6.4605V8.4605C11.0503 8.4605 11.7992 8.29146 12.4324 7.74407L11.1245 6.231ZM10.409 6.4605V4.4605C10.4313 4.4605 10.4321 4.46186 10.4062 4.45901C10.3814 4.45628 10.3406 4.45063 10.2816 4.43974L9.9185 6.4065L9.55541 8.37326C9.81695 8.42155 10.111 8.4605 10.409 8.4605V6.4605ZM9.9185 6.4065L10.2871 4.44076C10.1236 4.4101 9.93992 4.3719 9.73512 4.32548L9.293 6.276L8.85088 8.22652C9.09608 8.2821 9.3294 8.3309 9.54992 8.37224L9.9185 6.4065ZM9.293 6.276L9.7657 4.33266C9.53142 4.27568 9.29437 4.22037 9.05458 4.16673L8.618 6.1185L8.18142 8.07027C8.39763 8.11863 8.61058 8.16832 8.8203 8.21933L9.293 6.276ZM8.618 6.1185L9.08475 4.17373C8.82885 4.11231 8.58072 4.0593 8.34127 4.01576L7.9835 5.9835L7.62573 7.95124C7.78228 7.9797 7.95715 8.01669 8.15125 8.06327L8.618 6.1185ZM7.9835 5.9835L8.34127 4.01576C8.07363 3.9671 7.77829 3.9295 7.4795 3.9295V5.9295V7.9295C7.46366 7.9295 7.46767 7.92859 7.49593 7.93162C7.52337 7.93456 7.56595 7.94037 7.62573 7.95124L7.9835 5.9835ZM7.4795 5.9295V3.9295C7.11719 3.9295 6.35908 3.96622 5.70262 4.47679L6.9305 6.0555L8.15838 7.6342C7.91339 7.82475 7.68909 7.88899 7.59613 7.91032C7.49788 7.93287 7.44939 7.9295 7.4795 7.9295V5.9295ZM6.9305 6.0555L5.70262 4.47679C5.11446 4.93426 4.79138 5.60134 4.76131 6.30797L6.7595 6.393L8.75769 6.47803C8.75001 6.65856 8.70588 6.87972 8.59082 7.1068C8.47493 7.33553 8.31721 7.51067 8.15838 7.6342L6.9305 6.0555ZM6.7595 6.393L4.76139 6.30612C4.7498 6.57272 4.77653 6.87295 4.87484 7.18427L6.782 6.582L8.68916 5.97973C8.75148 6.17705 8.7632 6.35128 8.75761 6.47988L6.7595 6.393ZM6.782 6.582L4.91799 7.30689C4.91803 7.307 4.91807 7.3071 4.91811 7.30721C4.91815 7.30731 4.9182 7.30742 4.91824 7.30752C4.91828 7.30763 4.91832 7.30774 4.91836 7.30784C4.9184 7.30795 4.91844 7.30805 4.91848 7.30816C4.91852 7.30826 4.91856 7.30837 4.91861 7.30847C4.91865 7.30858 4.91869 7.30868 4.91873 7.30879C4.91877 7.3089 4.91881 7.309 4.91885 7.30911C4.91889 7.30921 4.91893 7.30932 4.91898 7.30942C4.91902 7.30953 4.91906 7.30963 4.9191 7.30974C4.91914 7.30984 4.91918 7.30995 4.91922 7.31006C4.91926 7.31016 4.9193 7.31027 4.91934 7.31037C4.91939 7.31048 4.91943 7.31058 4.91947 7.31069C4.91951 7.31079 4.91955 7.3109 4.91959 7.31101C4.91963 7.31111 4.91967 7.31122 4.91971 7.31132C4.91975 7.31143 4.9198 7.31153 4.91984 7.31164C4.91988 7.31174 4.91992 7.31185 4.91996 7.31195C4.92 7.31206 4.92004 7.31217 4.92008 7.31227C4.92012 7.31238 4.92016 7.31248 4.92021 7.31259C4.92025 7.31269 4.92029 7.3128 4.92033 7.3129C4.92037 7.31301 4.92041 7.31311 4.92045 7.31322C4.92049 7.31333 4.92053 7.31343 4.92057 7.31354C4.92062 7.31364 4.92066 7.31375 4.9207 7.31385C4.92074 7.31396 4.92078 7.31406 4.92082 7.31417C4.92086 7.31427 4.9209 7.31438 4.92094 7.31449C4.92098 7.31459 4.92103 7.3147 4.92107 7.3148C4.92111 7.31491 4.92115 7.31501 4.92119 7.31512C4.92123 7.31522 4.92127 7.31533 4.92131 7.31543C4.92135 7.31554 4.92139 7.31565 4.92144 7.31575C4.92148 7.31586 4.92152 7.31596 4.92156 7.31607C4.9216 7.31617 4.92164 7.31628 4.92168 7.31638C4.92172 7.31649 4.92176 7.31659 4.92181 7.3167C4.92185 7.31681 4.92189 7.31691 4.92193 7.31702C4.92197 7.31712 4.92201 7.31723 4.92205 7.31733C4.92209 7.31744 4.92213 7.31754 4.92217 7.31765C4.92222 7.31776 4.92226 7.31786 4.9223 7.31797C4.92234 7.31807 4.92238 7.31818 4.92242 7.31828C4.92246 7.31839 4.9225 7.31849 4.92254 7.3186C4.92258 7.3187 4.92263 7.31881 4.92267 7.31892C4.92271 7.31902 4.92275 7.31913 4.92279 7.31923C4.92283 7.31934 4.92287 7.31944 4.92291 7.31955C4.92295 7.31965 4.92299 7.31976 4.92304 7.31986C4.92308 7.31997 4.92312 7.32008 4.92316 7.32018C4.9232 7.32029 4.92324 7.32039 4.92328 7.3205C4.92332 7.3206 4.92336 7.32071 4.9234 7.32081C4.92345 7.32092 4.92349 7.32102 4.92353 7.32113C4.92357 7.32124 4.92361 7.32134 4.92365 7.32145C4.92369 7.32155 4.92373 7.32166 4.92377 7.32176C4.92381 7.32187 4.92386 7.32197 4.9239 7.32208C4.92394 7.32218 4.92398 7.32229 4.92402 7.3224C4.92406 7.3225 4.9241 7.32261 4.92414 7.32271C4.92418 7.32282 4.92423 7.32292 4.92427 7.32303C4.92431 7.32313 4.92435 7.32324 4.92439 7.32334C4.92443 7.32345 4.92447 7.32356 4.92451 7.32366C4.92455 7.32377 4.92459 7.32387 4.92464 7.32398C4.92468 7.32408 4.92472 7.32419 4.92476 7.32429C4.9248 7.3244 4.92484 7.3245 4.92488 7.32461C4.92492 7.32472 4.92496 7.32482 4.925 7.32493C4.92505 7.32503 4.92509 7.32514 4.92513 7.32524C4.92517 7.32535 4.92521 7.32545 4.92525 7.32556C4.92529 7.32566 4.92533 7.32577 4.92537 7.32588C4.92541 7.32598 4.92546 7.32609 4.9255 7.32619C4.92554 7.3263 4.92558 7.3264 4.92562 7.32651C4.92566 7.32661 4.9257 7.32672 4.92574 7.32683C4.92578 7.32693 4.92582 7.32704 4.92587 7.32714C4.92591 7.32725 4.92595 7.32735 4.92599 7.32746C4.92603 7.32756 4.92607 7.32767 4.92611 7.32777C4.92615 7.32788 4.92619 7.32799 4.92623 7.32809C4.92628 7.3282 4.92632 7.3283 4.92636 7.32841C4.9264 7.32851 4.92644 7.32862 4.92648 7.32872C4.92652 7.32883 4.92656 7.32893 4.9266 7.32904C4.92664 7.32915 4.92669 7.32925 4.92673 7.32936C4.92677 7.32946 4.92681 7.32957 4.92685 7.32967C4.92689 7.32978 4.92693 7.32988 4.92697 7.32999C4.92701 7.33009 4.92706 7.3302 4.9271 7.33031C4.92714 7.33041 4.92718 7.33052 4.92722 7.33062C4.92726 7.33073 4.9273 7.33083 4.92734 7.33094C4.92738 7.33104 4.92742 7.33115 4.92747 7.33125C4.92751 7.33136 4.92755 7.33147 4.92759 7.33157C4.92763 7.33168 4.92767 7.33178 4.92771 7.33189C4.92775 7.33199 4.92779 7.3321 4.92783 7.3322C4.92788 7.33231 4.92792 7.33242 4.92796 7.33252C4.928 7.33263 4.92804 7.33273 4.92808 7.33284C4.92812 7.33294 4.92816 7.33305 4.9282 7.33315C4.92824 7.33326 4.92829 7.33336 4.92833 7.33347C4.92837 7.33358 4.92841 7.33368 4.92845 7.33379C4.92849 7.33389 4.92853 7.334 4.92857 7.3341C4.92861 7.33421 4.92865 7.33431 4.9287 7.33442C4.92874 7.33452 4.92878 7.33463 4.92882 7.33474C4.92886 7.33484 4.9289 7.33495 4.92894 7.33505C4.92898 7.33516 4.92902 7.33526 4.92906 7.33537C4.92911 7.33547 4.92915 7.33558 4.92919 7.33568C4.92923 7.33579 4.92927 7.3359 4.92931 7.336C4.92935 7.33611 4.92939 7.33621 4.92943 7.33632C4.92948 7.33642 4.92952 7.33653 4.92956 7.33663C4.9296 7.33674 4.92964 7.33684 4.92968 7.33695C4.92972 7.33706 4.92976 7.33716 4.9298 7.33727C4.92984 7.33737 4.92989 7.33748 4.92993 7.33758C4.92997 7.33769 4.93001 7.33779 4.93005 7.3379C4.93009 7.33801 4.93013 7.33811 4.93017 7.33822C4.93021 7.33832 4.93025 7.33843 4.9303 7.33853C4.93034 7.33864 4.93038 7.33874 4.93042 7.33885C4.93046 7.33895 4.9305 7.33906 4.93054 7.33917C4.93058 7.33927 4.93062 7.33938 4.93066 7.33948C4.93071 7.33959 4.93075 7.33969 4.93079 7.3398C4.93083 7.3399 4.93087 7.34001 4.93091 7.34011C4.93095 7.34022 4.93099 7.34033 4.93103 7.34043C4.93107 7.34054 4.93112 7.34064 4.93116 7.34075C4.9312 7.34085 4.93124 7.34096 4.93128 7.34106C4.93132 7.34117 4.93136 7.34127 4.9314 7.34138C4.93144 7.34149 4.93148 7.34159 4.93153 7.3417C4.93157 7.3418 4.93161 7.34191 4.93165 7.34201C4.93169 7.34212 4.93173 7.34222 4.93177 7.34233C4.93181 7.34243 4.93185 7.34254 4.93189 7.34265C4.93194 7.34275 4.93198 7.34286 4.93202 7.34296C4.93206 7.34307 4.9321 7.34317 4.93214 7.34328C4.93218 7.34338 4.93222 7.34349 4.93226 7.3436C4.93231 7.3437 4.93235 7.34381 4.93239 7.34391C4.93243 7.34402 4.93247 7.34412 4.93251 7.34423C4.93255 7.34433 4.93259 7.34444 4.93263 7.34454C4.93267 7.34465 4.93272 7.34476 4.93276 7.34486C4.9328 7.34497 4.93284 7.34507 4.93288 7.34518C4.93292 7.34528 4.93296 7.34539 4.933 7.34549C4.93304 7.3456 4.93308 7.3457 4.93313 7.34581C4.93317 7.34592 4.93321 7.34602 4.93325 7.34613C4.93329 7.34623 4.93333 7.34634 4.93337 7.34644C4.93341 7.34655 4.93345 7.34665 4.93349 7.34676C4.93354 7.34686 4.93358 7.34697 4.93362 7.34708C4.93366 7.34718 4.9337 7.34729 4.93374 7.34739C4.93378 7.3475 4.93382 7.3476 4.93386 7.34771C4.9339 7.34781 4.93395 7.34792 4.93399 7.34802C4.93403 7.34813 4.93407 7.34824 4.93411 7.34834C4.93415 7.34845 4.93419 7.34855 4.93423 7.34866C4.93427 7.34876 4.93431 7.34887 4.93436 7.34897C4.9344 7.34908 4.93444 7.34918 4.93448 7.34929C4.93452 7.3494 4.93456 7.3495 4.9346 7.34961C4.93464 7.34971 4.93468 7.34982 4.93473 7.34992C4.93477 7.35003 4.93481 7.35013 4.93485 7.35024C4.93489 7.35034 4.93493 7.35045 4.93497 7.35056C4.93501 7.35066 4.93505 7.35077 4.93509 7.35087C4.93514 7.35098 4.93518 7.35108 4.93522 7.35119C4.93526 7.35129 4.9353 7.3514 4.93534 7.3515C4.93538 7.35161 4.93542 7.35172 4.93546 7.35182C4.9355 7.35193 4.93555 7.35203 4.93559 7.35214C4.93563 7.35224 4.93567 7.35235 4.93571 7.35245C4.93575 7.35256 4.93579 7.35266 4.93583 7.35277C4.93587 7.35288 4.93591 7.35298 4.93596 7.35309C4.936 7.35319 4.93604 7.3533 4.93608 7.3534C4.93612 7.35351 4.93616 7.35361 4.9362 7.35372C4.93624 7.35383 4.93628 7.35393 4.93632 7.35404C4.93637 7.35414 4.93641 7.35425 4.93645 7.35435C4.93649 7.35446 4.93653 7.35456 4.93657 7.35467C4.93661 7.35477 4.93665 7.35488 4.93669 7.35499C4.93673 7.35509 4.93678 7.3552 4.93682 7.3553C4.93686 7.35541 4.9369 7.35551 4.93694 7.35562C4.93698 7.35572 4.93702 7.35583 4.93706 7.35593C4.9371 7.35604 4.93714 7.35615 4.93719 7.35625C4.93723 7.35636 4.93727 7.35646 4.93731 7.35657C4.93735 7.35667 4.93739 7.35678 4.93743 7.35688C4.93747 7.35699 4.93751 7.35709 4.93756 7.3572C4.9376 7.35731 4.93764 7.35741 4.93768 7.35752C4.93772 7.35762 4.93776 7.35773 4.9378 7.35783C4.93784 7.35794 4.93788 7.35804 4.93792 7.35815C4.93797 7.35825 4.93801 7.35836 4.93805 7.35847C4.93809 7.35857 4.93813 7.35868 4.93817 7.35878C4.93821 7.35889 4.93825 7.35899 4.93829 7.3591C4.93833 7.3592 4.93838 7.35931 4.93842 7.35942C4.93846 7.35952 4.9385 7.35963 4.93854 7.35973C4.93858 7.35984 4.93862 7.35994 4.93866 7.36005C4.9387 7.36015 4.93874 7.36026 4.93879 7.36036C4.93883 7.36047 4.93887 7.36058 4.93891 7.36068C4.93895 7.36079 4.93899 7.36089 4.93903 7.361C4.93907 7.3611 4.93911 7.36121 4.93915 7.36131C4.9392 7.36142 4.93924 7.36152 4.93928 7.36163C4.93932 7.36174 4.93936 7.36184 4.9394 7.36195C4.93944 7.36205 4.93948 7.36216 4.93952 7.36226C4.93956 7.36237 4.93961 7.36247 4.93965 7.36258C4.93969 7.36268 4.93973 7.36279 4.93977 7.3629C4.93981 7.363 4.93985 7.36311 4.93989 7.36321C4.93993 7.36332 4.93998 7.36342 4.94002 7.36353C4.94006 7.36363 4.9401 7.36374 4.94014 7.36384C4.94018 7.36395 4.94022 7.36406 4.94026 7.36416C4.9403 7.36427 4.94034 7.36437 4.94039 7.36448C4.94043 7.36458 4.94047 7.36469 4.94051 7.36479C4.94055 7.3649 4.94059 7.36501 4.94063 7.36511C4.94067 7.36522 4.94071 7.36532 4.94075 7.36543C4.9408 7.36553 4.94084 7.36564 4.94088 7.36574C4.94092 7.36585 4.94096 7.36595 4.941 7.36606C4.94104 7.36617 4.94108 7.36627 4.94112 7.36638C4.94116 7.36648 4.94121 7.36659 4.94125 7.36669C4.94129 7.3668 4.94133 7.3669 4.94137 7.36701C4.94141 7.36711 4.94145 7.36722 4.94149 7.36733C4.94153 7.36743 4.94157 7.36754 4.94162 7.36764C4.94166 7.36775 4.9417 7.36785 4.94174 7.36796C4.94178 7.36806 4.94182 7.36817 4.94186 7.36827C4.9419 7.36838 4.94194 7.36849 4.94198 7.36859C4.94203 7.3687 4.94207 7.3688 4.94211 7.36891C4.94215 7.36901 4.94219 7.36912 4.94223 7.36922C4.94227 7.36933 4.94231 7.36943 4.94235 7.36954C4.94239 7.36965 4.94244 7.36975 4.94248 7.36986C4.94252 7.36996 4.94256 7.37007 4.9426 7.37017C4.94264 7.37028 4.94268 7.37038 4.94272 7.37049C4.94276 7.37059 4.94281 7.3707 4.94285 7.37081C4.94289 7.37091 4.94293 7.37102 4.94297 7.37112C4.94301 7.37123 4.94305 7.37133 4.94309 7.37144C4.94313 7.37154 4.94317 7.37165 4.94322 7.37176C4.94326 7.37186 4.9433 7.37197 4.94334 7.37207C4.94338 7.37218 4.94342 7.37228 4.94346 7.37239C4.9435 7.37249 4.94354 7.3726 4.94358 7.3727C4.94363 7.37281 4.94367 7.37292 4.94371 7.37302C4.94375 7.37313 4.94379 7.37323 4.94383 7.37334C4.94387 7.37344 4.94391 7.37355 4.94395 7.37365C4.94399 7.37376 4.94404 7.37386 4.94408 7.37397C4.94412 7.37408 4.94416 7.37418 4.9442 7.37429C4.94424 7.37439 4.94428 7.3745 4.94432 7.3746C4.94436 7.37471 4.9444 7.37481 4.94445 7.37492C4.94449 7.37502 4.94453 7.37513 4.94457 7.37524C4.94461 7.37534 4.94465 7.37545 4.94469 7.37555C4.94473 7.37566 4.94477 7.37576 4.94481 7.37587C4.94486 7.37597 4.9449 7.37608 4.94494 7.37618C4.94498 7.37629 4.94502 7.3764 4.94506 7.3765C4.9451 7.37661 4.94514 7.37671 4.94518 7.37682C4.94523 7.37692 4.94527 7.37703 4.94531 7.37713C4.94535 7.37724 4.94539 7.37735 4.94543 7.37745C4.94547 7.37756 4.94551 7.37766 4.94555 7.37777C4.94559 7.37787 4.94564 7.37798 4.94568 7.37808C4.94572 7.37819 4.94576 7.37829 4.9458 7.3784C4.94584 7.37851 4.94588 7.37861 4.94592 7.37872C4.94596 7.37882 4.946 7.37893 4.94605 7.37903C4.94609 7.37914 4.94613 7.37924 4.94617 7.37935C4.94621 7.37945 4.94625 7.37956 4.94629 7.37967C4.94633 7.37977 4.94637 7.37988 4.94641 7.37998C4.94646 7.38009 4.9465 7.38019 4.94654 7.3803C4.94658 7.3804 4.94662 7.38051 4.94666 7.38061C4.9467 7.38072 4.94674 7.38083 4.94678 7.38093C4.94682 7.38104 4.94687 7.38114 4.94691 7.38125C4.94695 7.38135 4.94699 7.38146 4.94703 7.38156C4.94707 7.38167 4.94711 7.38177 4.94715 7.38188C4.94719 7.38199 4.94723 7.38209 4.94728 7.3822C4.94732 7.3823 4.94736 7.38241 4.9474 7.38251C4.94744 7.38262 4.94748 7.38272 4.94752 7.38283C4.94756 7.38293 4.9476 7.38304 4.94764 7.38315C4.94769 7.38325 4.94773 7.38336 4.94777 7.38346C4.94781 7.38357 4.94785 7.38367 4.94789 7.38378C4.94793 7.38388 4.94797 7.38399 4.94801 7.38409C4.94806 7.3842 4.9481 7.38431 4.94814 7.38441C4.94818 7.38452 4.94822 7.38462 4.94826 7.38473C4.9483 7.38483 4.94834 7.38494 4.94838 7.38504C4.94842 7.38515 4.94847 7.38525 4.94851 7.38536C4.94855 7.38547 4.94859 7.38557 4.94863 7.38568C4.94867 7.38578 4.94871 7.38589 4.94875 7.38599C4.94879 7.3861 4.94883 7.3862 4.94888 7.38631C4.94892 7.38642 4.94896 7.38652 4.949 7.38663C4.94904 7.38673 4.94908 7.38684 4.94912 7.38694C4.94916 7.38705 4.9492 7.38715 4.94924 7.38726C4.94929 7.38736 4.94933 7.38747 4.94937 7.38758C4.94941 7.38768 4.94945 7.38779 4.94949 7.38789C4.94953 7.388 4.94957 7.3881 4.94961 7.38821C4.94965 7.38831 4.9497 7.38842 4.94974 7.38852C4.94978 7.38863 4.94982 7.38874 4.94986 7.38884C4.9499 7.38895 4.94994 7.38905 4.94998 7.38916C4.95002 7.38926 4.95006 7.38937 4.95011 7.38947C4.95015 7.38958 4.95019 7.38968 4.95023 7.38979C4.95027 7.3899 4.95031 7.39 4.95035 7.39011C4.95039 7.39021 4.95043 7.39032 4.95048 7.39042C4.95052 7.39053 4.95056 7.39063 4.9506 7.39074C4.95064 7.39084 4.95068 7.39095 4.95072 7.39106C4.95076 7.39116 4.9508 7.39127 4.95084 7.39137C4.95089 7.39148 4.95093 7.39158 4.95097 7.39169C4.95101 7.39179 4.95105 7.3919 4.95109 7.392C4.95113 7.39211 4.95117 7.39222 4.95121 7.39232C4.95125 7.39243 4.9513 7.39253 4.95134 7.39264C4.95138 7.39274 4.95142 7.39285 4.95146 7.39295C4.9515 7.39306 4.95154 7.39317 4.95158 7.39327C4.95162 7.39338 4.95166 7.39348 4.95171 7.39359C4.95175 7.39369 4.95179 7.3938 4.95183 7.3939C4.95187 7.39401 4.95191 7.39411 4.95195 7.39422C4.95199 7.39433 4.95203 7.39443 4.95207 7.39454C4.95212 7.39464 4.95216 7.39475 4.9522 7.39485C4.95224 7.39496 4.95228 7.39506 4.95232 7.39517C4.95236 7.39527 4.9524 7.39538 4.95244 7.39549C4.95248 7.39559 4.95253 7.3957 4.95257 7.3958C4.95261 7.39591 4.95265 7.39601 4.95269 7.39612C4.95273 7.39622 4.95277 7.39633 4.95281 7.39643C4.95285 7.39654 4.95289 7.39665 4.95294 7.39675C4.95298 7.39686 4.95302 7.39696 4.95306 7.39707C4.9531 7.39717 4.95314 7.39728 4.95318 7.39738C4.95322 7.39749 4.95326 7.39759 4.95331 7.3977C4.95335 7.39781 4.95339 7.39791 4.95343 7.39802C4.95347 7.39812 4.95351 7.39823 4.95355 7.39833C4.95359 7.39844 4.95363 7.39854 4.95367 7.39865C4.95372 7.39876 4.95376 7.39886 4.9538 7.39897C4.95384 7.39907 4.95388 7.39918 4.95392 7.39928C4.95396 7.39939 4.954 7.39949 4.95404 7.3996C4.95408 7.3997 4.95413 7.39981 4.95417 7.39992C4.95421 7.40002 4.95425 7.40013 4.95429 7.40023C4.95433 7.40034 4.95437 7.40044 4.95441 7.40055C4.95445 7.40065 4.95449 7.40076 4.95454 7.40086C4.95458 7.40097 4.95462 7.40108 4.95466 7.40118C4.9547 7.40129 4.95474 7.40139 4.95478 7.4015C4.95482 7.4016 4.95486 7.40171 4.9549 7.40181C4.95495 7.40192 4.95499 7.40202 4.95503 7.40213C4.95507 7.40224 4.95511 7.40234 4.95515 7.40245C4.95519 7.40255 4.95523 7.40266 4.95527 7.40276C4.95531 7.40287 4.95536 7.40297 4.9554 7.40308C4.95544 7.40318 4.95548 7.40329 4.95552 7.4034C4.95556 7.4035 4.9556 7.40361 4.95564 7.40371C4.95568 7.40382 4.95573 7.40392 4.95577 7.40403C4.95581 7.40413 4.95585 7.40424 4.95589 7.40435C4.95593 7.40445 4.95597 7.40456 4.95601 7.40466C4.95605 7.40477 4.95609 7.40487 4.95614 7.40498C4.95618 7.40508 4.95622 7.40519 4.95626 7.40529C4.9563 7.4054 4.95634 7.40551 4.95638 7.40561C4.95642 7.40572 4.95646 7.40582 4.9565 7.40593C4.95655 7.40603 4.95659 7.40614 4.95663 7.40624C4.95667 7.40635 4.95671 7.40645 4.95675 7.40656C4.95679 7.40667 4.95683 7.40677 4.95687 7.40688C4.95691 7.40698 4.95696 7.40709 4.957 7.40719C4.95704 7.4073 4.95708 7.4074 4.95712 7.40751C4.95716 7.40761 4.9572 7.40772 4.95724 7.40783C4.95728 7.40793 4.95732 7.40804 4.95737 7.40814C4.95741 7.40825 4.95745 7.40835 4.95749 7.40846C4.95753 7.40856 4.95757 7.40867 4.95761 7.40877C4.95765 7.40888 4.95769 7.40899 4.95773 7.40909C4.95778 7.4092 4.95782 7.4093 4.95786 7.40941C4.9579 7.40951 4.95794 7.40962 4.95798 7.40972C4.95802 7.40983 4.95806 7.40993 4.9581 7.41004C4.95814 7.41015 4.95819 7.41025 4.95823 7.41036C4.95827 7.41046 4.95831 7.41057 4.95835 7.41067C4.95839 7.41078 4.95843 7.41088 4.95847 7.41099C4.95851 7.41109 4.95856 7.4112 4.9586 7.41131C4.95864 7.41141 4.95868 7.41152 4.95872 7.41162C4.95876 7.41173 4.9588 7.41183 4.95884 7.41194C4.95888 7.41204 4.95892 7.41215 4.95897 7.41225C4.95901 7.41236 4.95905 7.41247 4.95909 7.41257C4.95913 7.41268 4.95917 7.41278 4.95921 7.41289C4.95925 7.41299 4.95929 7.4131 4.95933 7.4132C4.95938 7.41331 4.95942 7.41341 4.95946 7.41352C4.9595 7.41363 4.95954 7.41373 4.95958 7.41384C4.95962 7.41394 4.95966 7.41405 4.9597 7.41415C4.95974 7.41426 4.95979 7.41436 4.95983 7.41447C4.95987 7.41458 4.95991 7.41468 4.95995 7.41479C4.95999 7.41489 4.96003 7.415 4.96007 7.4151C4.96011 7.41521 4.96015 7.41531 4.9602 7.41542C4.96024 7.41552 4.96028 7.41563 4.96032 7.41574C4.96036 7.41584 4.9604 7.41595 4.96044 7.41605C4.96048 7.41616 4.96052 7.41626 4.96056 7.41637C4.96061 7.41647 4.96065 7.41658 4.96069 7.41668C4.96073 7.41679 4.96077 7.4169 4.96081 7.417C4.96085 7.41711 4.96089 7.41721 4.96093 7.41732C4.96098 7.41742 4.96102 7.41753 4.96106 7.41763C4.9611 7.41774 4.96114 7.41784 4.96118 7.41795C4.96122 7.41806 4.96126 7.41816 4.9613 7.41827C4.96134 7.41837 4.96139 7.41848 4.96143 7.41858C4.96147 7.41869 4.96151 7.41879 4.96155 7.4189C4.96159 7.419 4.96163 7.41911 4.96167 7.41922C4.96171 7.41932 4.96175 7.41943 4.9618 7.41953C4.96184 7.41964 4.96188 7.41974 4.96192 7.41985C4.96196 7.41995 4.962 7.42006 4.96204 7.42017C4.96208 7.42027 4.96212 7.42038 4.96216 7.42048C4.96221 7.42059 4.96225 7.42069 4.96229 7.4208C4.96233 7.4209 4.96237 7.42101 4.96241 7.42111C4.96245 7.42122 4.96249 7.42133 4.96253 7.42143C4.96257 7.42154 4.96262 7.42164 4.96266 7.42175C4.9627 7.42185 4.96274 7.42196 4.96278 7.42206C4.96282 7.42217 4.96286 7.42227 4.9629 7.42238C4.96294 7.42249 4.96298 7.42259 4.96303 7.4227C4.96307 7.4228 4.96311 7.42291 4.96315 7.42301C4.96319 7.42312 4.96323 7.42322 4.96327 7.42333C4.96331 7.42343 4.96335 7.42354 4.96339 7.42365C4.96344 7.42375 4.96348 7.42386 4.96352 7.42396C4.96356 7.42407 4.9636 7.42417 4.96364 7.42428C4.96368 7.42438 4.96372 7.42449 4.96376 7.42459C4.96381 7.4247 4.96385 7.42481 4.96389 7.42491C4.96393 7.42502 4.96397 7.42512 4.96401 7.42523C4.96405 7.42533 4.96409 7.42544 4.96413 7.42554C4.96417 7.42565 4.96422 7.42576 4.96426 7.42586C4.9643 7.42597 4.96434 7.42607 4.96438 7.42618C4.96442 7.42628 4.96446 7.42639 4.9645 7.42649C4.96454 7.4266 4.96458 7.4267 4.96463 7.42681C4.96467 7.42692 4.96471 7.42702 4.96475 7.42713C4.96479 7.42723 4.96483 7.42734 4.96487 7.42744C4.96491 7.42755 4.96495 7.42765 4.96499 7.42776C4.96504 7.42786 4.96508 7.42797 4.96512 7.42808C4.96516 7.42818 4.9652 7.42829 4.96524 7.42839C4.96528 7.4285 4.96532 7.4286 4.96536 7.42871C4.9654 7.42881 4.96545 7.42892 4.96549 7.42902C4.96553 7.42913 4.96557 7.42924 4.96561 7.42934C4.96565 7.42945 4.96569 7.42955 4.96573 7.42966C4.96577 7.42976 4.96581 7.42987 4.96586 7.42997C4.9659 7.43008 4.96594 7.43018 4.96598 7.43029C4.96602 7.4304 4.96606 7.4305 4.9661 7.43061C4.96614 7.43071 4.96618 7.43082 4.96623 7.43092C4.96627 7.43103 4.96631 7.43113 4.96635 7.43124C4.96639 7.43134 4.96643 7.43145 4.96647 7.43156C4.96651 7.43166 4.96655 7.43177 4.96659 7.43187C4.96664 7.43198 4.96668 7.43208 4.96672 7.43219C4.96676 7.43229 4.9668 7.4324 4.96684 7.43251C4.96688 7.43261 4.96692 7.43272 4.96696 7.43282C4.967 7.43293 4.96705 7.43303 4.96709 7.43314C4.96713 7.43324 4.96717 7.43335 4.96721 7.43345C4.96725 7.43356 4.96729 7.43367 4.96733 7.43377C4.96737 7.43388 4.96741 7.43398 4.96746 7.43409C4.9675 7.43419 4.96754 7.4343 4.96758 7.4344C4.96762 7.43451 4.96766 7.43461 4.9677 7.43472C4.96774 7.43483 4.96778 7.43493 4.96782 7.43504C4.96787 7.43514 4.96791 7.43525 4.96795 7.43535C4.96799 7.43546 4.96803 7.43556 4.96807 7.43567C4.96811 7.43577 4.96815 7.43588 4.96819 7.43599C4.96823 7.43609 4.96828 7.4362 4.96832 7.4363C4.96836 7.43641 4.9684 7.43651 4.96844 7.43662C4.96848 7.43672 4.96852 7.43683 4.96856 7.43693C4.9686 7.43704 4.96864 7.43715 4.96869 7.43725C4.96873 7.43736 4.96877 7.43746 4.96881 7.43757C4.96885 7.43767 4.96889 7.43778 4.96893 7.43788C4.96897 7.43799 4.96901 7.4381 4.96906 7.4382C4.9691 7.43831 4.96914 7.43841 4.96918 7.43852C4.96922 7.43862 4.96926 7.43873 4.9693 7.43883C4.96934 7.43894 4.96938 7.43904 4.96942 7.43915C4.96947 7.43926 4.96951 7.43936 4.96955 7.43947C4.96959 7.43957 4.96963 7.43968 4.96967 7.43978C4.96971 7.43989 4.96975 7.43999 4.96979 7.4401C4.96983 7.4402 4.96988 7.44031 4.96992 7.44042C4.96996 7.44052 4.97 7.44063 4.97004 7.44073C4.97008 7.44084 4.97012 7.44094 4.97016 7.44105C4.9702 7.44115 4.97024 7.44126 4.97029 7.44136C4.97033 7.44147 4.97037 7.44158 4.97041 7.44168C4.97045 7.44179 4.97049 7.44189 4.97053 7.442C4.97057 7.4421 4.97061 7.44221 4.97065 7.44231C4.9707 7.44242 4.97074 7.44252 4.97078 7.44263C4.97082 7.44274 4.97086 7.44284 4.9709 7.44295C4.97094 7.44305 4.97098 7.44316 4.97102 7.44326C4.97106 7.44337 4.97111 7.44347 4.97115 7.44358C4.97119 7.44368 4.97123 7.44379 4.97127 7.4439C4.97131 7.444 4.97135 7.44411 4.97139 7.44421C4.97143 7.44432 4.97148 7.44442 4.97152 7.44453C4.97156 7.44463 4.9716 7.44474 4.97164 7.44484C4.97168 7.44495 4.97172 7.44506 4.97176 7.44516C4.9718 7.44527 4.97184 7.44537 4.97189 7.44548C4.97193 7.44558 4.97197 7.44569 4.97201 7.44579C4.97205 7.4459 4.97209 7.446 4.97213 7.44611C4.97217 7.44622 4.97221 7.44632 4.97225 7.44643C4.9723 7.44653 4.97234 7.44664 4.97238 7.44674C4.97242 7.44685 4.97246 7.44695 4.9725 7.44706C4.97254 7.44717 4.97258 7.44727 4.97262 7.44738C4.97266 7.44748 4.97271 7.44759 4.97275 7.44769C4.97279 7.4478 4.97283 7.4479 4.97287 7.44801C4.97291 7.44811 4.97295 7.44822 4.97299 7.44833C4.97303 7.44843 4.97307 7.44854 4.97312 7.44864C4.97316 7.44875 4.9732 7.44885 4.97324 7.44896C4.97328 7.44906 4.97332 7.44917 4.97336 7.44927C4.9734 7.44938 4.97344 7.44949 4.97348 7.44959C4.97353 7.4497 4.97357 7.4498 4.97361 7.44991C4.97365 7.45001 4.97369 7.45012 4.97373 7.45022C4.97377 7.45033 4.97381 7.45043 4.97385 7.45054C4.97389 7.45065 4.97394 7.45075 4.97398 7.45086C4.97402 7.45096 4.97406 7.45107 4.9741 7.45117C4.97414 7.45128 4.97418 7.45138 4.97422 7.45149C4.97426 7.45159 4.97431 7.4517 4.97435 7.45181C4.97439 7.45191 4.97443 7.45202 4.97447 7.45212C4.97451 7.45223 4.97455 7.45233 4.97459 7.45244C4.97463 7.45254 4.97467 7.45265 4.97472 7.45275C4.97476 7.45286 4.9748 7.45297 4.97484 7.45307C4.97488 7.45318 4.97492 7.45328 4.97496 7.45339C4.975 7.45349 4.97504 7.4536 4.97508 7.4537C4.97513 7.45381 4.97517 7.45392 4.97521 7.45402C4.97525 7.45413 4.97529 7.45423 4.97533 7.45434C4.97537 7.45444 4.97541 7.45455 4.97545 7.45465C4.97549 7.45476 4.97554 7.45486 4.97558 7.45497C4.97562 7.45508 4.97566 7.45518 4.9757 7.45529C4.97574 7.45539 4.97578 7.4555 4.97582 7.4556C4.97586 7.45571 4.9759 7.45581 4.97595 7.45592C4.97599 7.45602 4.97603 7.45613 4.97607 7.45624C4.97611 7.45634 4.97615 7.45645 4.97619 7.45655C4.97623 7.45666 4.97627 7.45676 4.97631 7.45687C4.97636 7.45697 4.9764 7.45708 4.97644 7.45718C4.97648 7.45729 4.97652 7.4574 4.97656 7.4575C4.9766 7.45761 4.97664 7.45771 4.97668 7.45782C4.97673 7.45792 4.97677 7.45803 4.97681 7.45813C4.97685 7.45824 4.97689 7.45834 4.97693 7.45845C4.97697 7.45856 4.97701 7.45866 4.97705 7.45877C4.97709 7.45887 4.97714 7.45898 4.97718 7.45908C4.97722 7.45919 4.97726 7.45929 4.9773 7.4594C4.97734 7.45951 4.97738 7.45961 4.97742 7.45972C4.97746 7.45982 4.9775 7.45993 4.97755 7.46003C4.97759 7.46014 4.97763 7.46024 4.97767 7.46035C4.97771 7.46045 4.97775 7.46056 4.97779 7.46067C4.97783 7.46077 4.97787 7.46088 4.97791 7.46098C4.97796 7.46109 4.978 7.46119 4.97804 7.4613C4.97808 7.4614 4.97812 7.46151 4.97816 7.46161C4.9782 7.46172 4.97824 7.46183 4.97828 7.46193C4.97832 7.46204 4.97837 7.46214 4.97841 7.46225C4.97845 7.46235 4.97849 7.46246 4.97853 7.46256C4.97857 7.46267 4.97861 7.46277 4.97865 7.46288C4.97869 7.46299 4.97873 7.46309 4.97878 7.4632C4.97882 7.4633 4.97886 7.46341 4.9789 7.46351C4.97894 7.46362 4.97898 7.46372 4.97902 7.46383C4.97906 7.46393 4.9791 7.46404 4.97914 7.46415C4.97919 7.46425 4.97923 7.46436 4.97927 7.46446C4.97931 7.46457 4.97935 7.46467 4.97939 7.46478C4.97943 7.46488 4.97947 7.46499 4.97951 7.4651C4.97956 7.4652 4.9796 7.46531 4.97964 7.46541C4.97968 7.46552 4.97972 7.46562 4.97976 7.46573C4.9798 7.46583 4.97984 7.46594 4.97988 7.46604C4.97992 7.46615 4.97997 7.46626 4.98001 7.46636C4.98005 7.46647 4.98009 7.46657 4.98013 7.46668C4.98017 7.46678 4.98021 7.46689 4.98025 7.46699C4.98029 7.4671 4.98033 7.4672 4.98038 7.46731C4.98042 7.46742 4.98046 7.46752 4.9805 7.46763C4.98054 7.46773 4.98058 7.46784 4.98062 7.46794C4.98066 7.46805 4.9807 7.46815 4.98074 7.46826C4.98079 7.46836 4.98083 7.46847 4.98087 7.46858C4.98091 7.46868 4.98095 7.46879 4.98099 7.46889L6.845 6.744L8.70901 6.01911C8.70897 6.019 8.70893 6.0189 8.70889 6.01879C8.70885 6.01869 8.7088 6.01858 8.70876 6.01847C8.70872 6.01837 8.70868 6.01826 8.70864 6.01816C8.7086 6.01805 8.70856 6.01795 8.70852 6.01784C8.70848 6.01774 8.70844 6.01763 8.70839 6.01753C8.70835 6.01742 8.70831 6.01731 8.70827 6.01721C8.70823 6.0171 8.70819 6.017 8.70815 6.01689C8.70811 6.01679 8.70807 6.01668 8.70803 6.01658C8.70798 6.01647 8.70794 6.01637 8.7079 6.01626C8.70786 6.01615 8.70782 6.01605 8.70778 6.01594C8.70774 6.01584 8.7077 6.01573 8.70766 6.01563C8.70762 6.01552 8.70757 6.01542 8.70753 6.01531C8.70749 6.0152 8.70745 6.0151 8.70741 6.01499C8.70737 6.01489 8.70733 6.01478 8.70729 6.01468C8.70725 6.01457 8.7072 6.01447 8.70716 6.01436C8.70712 6.01426 8.70708 6.01415 8.70704 6.01404C8.707 6.01394 8.70696 6.01383 8.70692 6.01373C8.70688 6.01362 8.70684 6.01352 8.70679 6.01341C8.70675 6.01331 8.70671 6.0132 8.70667 6.0131C8.70663 6.01299 8.70659 6.01288 8.70655 6.01278C8.70651 6.01267 8.70647 6.01257 8.70643 6.01246C8.70638 6.01236 8.70634 6.01225 8.7063 6.01215C8.70626 6.01204 8.70622 6.01194 8.70618 6.01183C8.70614 6.01172 8.7061 6.01162 8.70606 6.01151C8.70602 6.01141 8.70597 6.0113 8.70593 6.0112C8.70589 6.01109 8.70585 6.01099 8.70581 6.01088C8.70577 6.01078 8.70573 6.01067 8.70569 6.01056C8.70565 6.01046 8.70561 6.01035 8.70556 6.01025C8.70552 6.01014 8.70548 6.01004 8.70544 6.00993C8.7054 6.00983 8.70536 6.00972 8.70532 6.00961C8.70528 6.00951 8.70524 6.0094 8.7052 6.0093C8.70515 6.00919 8.70511 6.00909 8.70507 6.00898C8.70503 6.00888 8.70499 6.00877 8.70495 6.00867C8.70491 6.00856 8.70487 6.00845 8.70483 6.00835C8.70478 6.00824 8.70474 6.00814 8.7047 6.00803C8.70466 6.00793 8.70462 6.00782 8.70458 6.00772C8.70454 6.00761 8.7045 6.00751 8.70446 6.0074C8.70442 6.00729 8.70437 6.00719 8.70433 6.00708C8.70429 6.00698 8.70425 6.00687 8.70421 6.00677C8.70417 6.00666 8.70413 6.00656 8.70409 6.00645C8.70405 6.00635 8.70401 6.00624 8.70396 6.00613C8.70392 6.00603 8.70388 6.00592 8.70384 6.00582C8.7038 6.00571 8.70376 6.00561 8.70372 6.0055C8.70368 6.0054 8.70364 6.00529 8.7036 6.00519C8.70355 6.00508 8.70351 6.00497 8.70347 6.00487C8.70343 6.00476 8.70339 6.00466 8.70335 6.00455C8.70331 6.00445 8.70327 6.00434 8.70323 6.00424C8.70319 6.00413 8.70314 6.00403 8.7031 6.00392C8.70306 6.00381 8.70302 6.00371 8.70298 6.0036C8.70294 6.0035 8.7029 6.00339 8.70286 6.00329C8.70282 6.00318 8.70278 6.00308 8.70273 6.00297C8.70269 6.00287 8.70265 6.00276 8.70261 6.00265C8.70257 6.00255 8.70253 6.00244 8.70249 6.00234C8.70245 6.00223 8.70241 6.00213 8.70237 6.00202C8.70232 6.00192 8.70228 6.00181 8.70224 6.00171C8.7022 6.0016 8.70216 6.00149 8.70212 6.00139C8.70208 6.00128 8.70204 6.00118 8.702 6.00107C8.70195 6.00097 8.70191 6.00086 8.70187 6.00076C8.70183 6.00065 8.70179 6.00055 8.70175 6.00044C8.70171 6.00033 8.70167 6.00023 8.70163 6.00012C8.70159 6.00002 8.70154 5.99991 8.7015 5.99981C8.70146 5.9997 8.70142 5.9996 8.70138 5.99949C8.70134 5.99938 8.7013 5.99928 8.70126 5.99917C8.70122 5.99907 8.70118 5.99896 8.70113 5.99886C8.70109 5.99875 8.70105 5.99865 8.70101 5.99854C8.70097 5.99844 8.70093 5.99833 8.70089 5.99822C8.70085 5.99812 8.70081 5.99801 8.70077 5.99791C8.70072 5.9978 8.70068 5.9977 8.70064 5.99759C8.7006 5.99749 8.70056 5.99738 8.70052 5.99728C8.70048 5.99717 8.70044 5.99706 8.7004 5.99696C8.70036 5.99685 8.70031 5.99675 8.70027 5.99664C8.70023 5.99654 8.70019 5.99643 8.70015 5.99633C8.70011 5.99622 8.70007 5.99612 8.70003 5.99601C8.69999 5.9959 8.69995 5.9958 8.6999 5.99569C8.69986 5.99559 8.69982 5.99548 8.69978 5.99538C8.69974 5.99527 8.6997 5.99517 8.69966 5.99506C8.69962 5.99496 8.69958 5.99485 8.69953 5.99474C8.69949 5.99464 8.69945 5.99453 8.69941 5.99443C8.69937 5.99432 8.69933 5.99422 8.69929 5.99411C8.69925 5.99401 8.69921 5.9939 8.69917 5.99379C8.69912 5.99369 8.69908 5.99358 8.69904 5.99348C8.699 5.99337 8.69896 5.99327 8.69892 5.99316C8.69888 5.99306 8.69884 5.99295 8.6988 5.99285C8.69876 5.99274 8.69871 5.99263 8.69867 5.99253C8.69863 5.99242 8.69859 5.99232 8.69855 5.99221C8.69851 5.99211 8.69847 5.992 8.69843 5.9919C8.69839 5.99179 8.69835 5.99169 8.6983 5.99158C8.69826 5.99147 8.69822 5.99137 8.69818 5.99126C8.69814 5.99116 8.6981 5.99105 8.69806 5.99095C8.69802 5.99084 8.69798 5.99074 8.69794 5.99063C8.69789 5.99053 8.69785 5.99042 8.69781 5.99031C8.69777 5.99021 8.69773 5.9901 8.69769 5.99C8.69765 5.98989 8.69761 5.98979 8.69757 5.98968C8.69753 5.98958 8.69748 5.98947 8.69744 5.98937C8.6974 5.98926 8.69736 5.98915 8.69732 5.98905C8.69728 5.98894 8.69724 5.98884 8.6972 5.98873C8.69716 5.98863 8.69711 5.98852 8.69707 5.98842C8.69703 5.98831 8.69699 5.9882 8.69695 5.9881C8.69691 5.98799 8.69687 5.98789 8.69683 5.98778C8.69679 5.98768 8.69675 5.98757 8.6967 5.98747C8.69666 5.98736 8.69662 5.98726 8.69658 5.98715C8.69654 5.98704 8.6965 5.98694 8.69646 5.98683C8.69642 5.98673 8.69638 5.98662 8.69634 5.98652C8.69629 5.98641 8.69625 5.98631 8.69621 5.9862C8.69617 5.9861 8.69613 5.98599 8.69609 5.98588C8.69605 5.98578 8.69601 5.98567 8.69597 5.98557C8.69593 5.98546 8.69588 5.98536 8.69584 5.98525C8.6958 5.98515 8.69576 5.98504 8.69572 5.98494C8.69568 5.98483 8.69564 5.98472 8.6956 5.98462C8.69556 5.98451 8.69552 5.98441 8.69547 5.9843C8.69543 5.9842 8.69539 5.98409 8.69535 5.98399C8.69531 5.98388 8.69527 5.98378 8.69523 5.98367C8.69519 5.98356 8.69515 5.98346 8.69511 5.98335C8.69506 5.98325 8.69502 5.98314 8.69498 5.98304C8.69494 5.98293 8.6949 5.98283 8.69486 5.98272C8.69482 5.98261 8.69478 5.98251 8.69474 5.9824C8.6947 5.9823 8.69465 5.98219 8.69461 5.98209C8.69457 5.98198 8.69453 5.98188 8.69449 5.98177C8.69445 5.98167 8.69441 5.98156 8.69437 5.98145C8.69433 5.98135 8.69428 5.98124 8.69424 5.98114C8.6942 5.98103 8.69416 5.98093 8.69412 5.98082C8.69408 5.98072 8.69404 5.98061 8.694 5.98051C8.69396 5.9804 8.69392 5.98029 8.69387 5.98019C8.69383 5.98008 8.69379 5.97998 8.69375 5.97987C8.69371 5.97977 8.69367 5.97966 8.69363 5.97956C8.69359 5.97945 8.69355 5.97935 8.69351 5.97924C8.69346 5.97913 8.69342 5.97903 8.69338 5.97892C8.69334 5.97882 8.6933 5.97871 8.69326 5.97861C8.69322 5.9785 8.69318 5.9784 8.69314 5.97829C8.6931 5.97819 8.69305 5.97808 8.69301 5.97797C8.69297 5.97787 8.69293 5.97776 8.69289 5.97766C8.69285 5.97755 8.69281 5.97745 8.69277 5.97734C8.69273 5.97724 8.69269 5.97713 8.69264 5.97703C8.6926 5.97692 8.69256 5.97681 8.69252 5.97671C8.69248 5.9766 8.69244 5.9765 8.6924 5.97639C8.69236 5.97629 8.69232 5.97618 8.69228 5.97608C8.69223 5.97597 8.69219 5.97586 8.69215 5.97576C8.69211 5.97565 8.69207 5.97555 8.69203 5.97544C8.69199 5.97534 8.69195 5.97523 8.69191 5.97513C8.69186 5.97502 8.69182 5.97492 8.69178 5.97481C8.69174 5.9747 8.6917 5.9746 8.69166 5.97449C8.69162 5.97439 8.69158 5.97428 8.69154 5.97418C8.6915 5.97407 8.69145 5.97397 8.69141 5.97386C8.69137 5.97376 8.69133 5.97365 8.69129 5.97354C8.69125 5.97344 8.69121 5.97333 8.69117 5.97323C8.69113 5.97312 8.69109 5.97302 8.69104 5.97291C8.691 5.97281 8.69096 5.9727 8.69092 5.9726C8.69088 5.97249 8.69084 5.97238 8.6908 5.97228C8.69076 5.97217 8.69072 5.97207 8.69068 5.97196C8.69063 5.97186 8.69059 5.97175 8.69055 5.97165C8.69051 5.97154 8.69047 5.97144 8.69043 5.97133C8.69039 5.97122 8.69035 5.97112 8.69031 5.97101C8.69027 5.97091 8.69022 5.9708 8.69018 5.9707C8.69014 5.97059 8.6901 5.97049 8.69006 5.97038C8.69002 5.97028 8.68998 5.97017 8.68994 5.97006C8.6899 5.96996 8.68986 5.96985 8.68981 5.96975C8.68977 5.96964 8.68973 5.96954 8.68969 5.96943C8.68965 5.96933 8.68961 5.96922 8.68957 5.96912C8.68953 5.96901 8.68949 5.9689 8.68945 5.9688C8.6894 5.96869 8.68936 5.96859 8.68932 5.96848C8.68928 5.96838 8.68924 5.96827 8.6892 5.96817C8.68916 5.96806 8.68912 5.96796 8.68908 5.96785C8.68903 5.96774 8.68899 5.96764 8.68895 5.96753C8.68891 5.96743 8.68887 5.96732 8.68883 5.96722C8.68879 5.96711 8.68875 5.96701 8.68871 5.9669C8.68867 5.96679 8.68862 5.96669 8.68858 5.96658C8.68854 5.96648 8.6885 5.96637 8.68846 5.96627C8.68842 5.96616 8.68838 5.96606 8.68834 5.96595C8.6883 5.96585 8.68826 5.96574 8.68821 5.96563C8.68817 5.96553 8.68813 5.96542 8.68809 5.96532C8.68805 5.96521 8.68801 5.96511 8.68797 5.965C8.68793 5.9649 8.68789 5.96479 8.68785 5.96469C8.6878 5.96458 8.68776 5.96447 8.68772 5.96437C8.68768 5.96426 8.68764 5.96416 8.6876 5.96405C8.68756 5.96395 8.68752 5.96384 8.68748 5.96374C8.68744 5.96363 8.68739 5.96353 8.68735 5.96342C8.68731 5.96331 8.68727 5.96321 8.68723 5.9631C8.68719 5.963 8.68715 5.96289 8.68711 5.96279C8.68707 5.96268 8.68703 5.96258 8.68698 5.96247C8.68694 5.96237 8.6869 5.96226 8.68686 5.96215C8.68682 5.96205 8.68678 5.96194 8.68674 5.96184C8.6867 5.96173 8.68666 5.96163 8.68661 5.96152C8.68657 5.96142 8.68653 5.96131 8.68649 5.96121C8.68645 5.9611 8.68641 5.96099 8.68637 5.96089C8.68633 5.96078 8.68629 5.96068 8.68625 5.96057C8.6862 5.96047 8.68616 5.96036 8.68612 5.96026C8.68608 5.96015 8.68604 5.96004 8.686 5.95994C8.68596 5.95983 8.68592 5.95973 8.68588 5.95962C8.68584 5.95952 8.68579 5.95941 8.68575 5.95931C8.68571 5.9592 8.68567 5.9591 8.68563 5.95899C8.68559 5.95888 8.68555 5.95878 8.68551 5.95867C8.68547 5.95857 8.68543 5.95846 8.68538 5.95836C8.68534 5.95825 8.6853 5.95815 8.68526 5.95804C8.68522 5.95794 8.68518 5.95783 8.68514 5.95772C8.6851 5.95762 8.68506 5.95751 8.68502 5.95741C8.68497 5.9573 8.68493 5.9572 8.68489 5.95709C8.68485 5.95699 8.68481 5.95688 8.68477 5.95678C8.68473 5.95667 8.68469 5.95656 8.68465 5.95646C8.68461 5.95635 8.68456 5.95625 8.68452 5.95614C8.68448 5.95604 8.68444 5.95593 8.6844 5.95583C8.68436 5.95572 8.68432 5.95562 8.68428 5.95551C8.68424 5.9554 8.6842 5.9553 8.68415 5.95519C8.68411 5.95509 8.68407 5.95498 8.68403 5.95488C8.68399 5.95477 8.68395 5.95467 8.68391 5.95456C8.68387 5.95445 8.68383 5.95435 8.68378 5.95424C8.68374 5.95414 8.6837 5.95403 8.68366 5.95393C8.68362 5.95382 8.68358 5.95372 8.68354 5.95361C8.6835 5.95351 8.68346 5.9534 8.68342 5.95329C8.68337 5.95319 8.68333 5.95308 8.68329 5.95298C8.68325 5.95287 8.68321 5.95277 8.68317 5.95266C8.68313 5.95256 8.68309 5.95245 8.68305 5.95235C8.68301 5.95224 8.68296 5.95213 8.68292 5.95203C8.68288 5.95192 8.68284 5.95182 8.6828 5.95171C8.68276 5.95161 8.68272 5.9515 8.68268 5.9514C8.68264 5.95129 8.6826 5.95119 8.68255 5.95108C8.68251 5.95097 8.68247 5.95087 8.68243 5.95076C8.68239 5.95066 8.68235 5.95055 8.68231 5.95045C8.68227 5.95034 8.68223 5.95024 8.68219 5.95013C8.68214 5.95003 8.6821 5.94992 8.68206 5.94981C8.68202 5.94971 8.68198 5.9496 8.68194 5.9495C8.6819 5.94939 8.68186 5.94929 8.68182 5.94918C8.68178 5.94908 8.68173 5.94897 8.68169 5.94886C8.68165 5.94876 8.68161 5.94865 8.68157 5.94855C8.68153 5.94844 8.68149 5.94834 8.68145 5.94823C8.68141 5.94813 8.68137 5.94802 8.68132 5.94792C8.68128 5.94781 8.68124 5.9477 8.6812 5.9476C8.68116 5.94749 8.68112 5.94739 8.68108 5.94728C8.68104 5.94718 8.681 5.94707 8.68095 5.94697C8.68091 5.94686 8.68087 5.94676 8.68083 5.94665C8.68079 5.94654 8.68075 5.94644 8.68071 5.94633C8.68067 5.94623 8.68063 5.94612 8.68059 5.94602C8.68054 5.94591 8.6805 5.94581 8.68046 5.9457C8.68042 5.9456 8.68038 5.94549 8.68034 5.94538C8.6803 5.94528 8.68026 5.94517 8.68022 5.94507C8.68018 5.94496 8.68013 5.94486 8.68009 5.94475C8.68005 5.94465 8.68001 5.94454 8.67997 5.94444C8.67993 5.94433 8.67989 5.94422 8.67985 5.94412C8.67981 5.94401 8.67977 5.94391 8.67972 5.9438C8.67968 5.9437 8.67964 5.94359 8.6796 5.94349C8.67956 5.94338 8.67952 5.94328 8.67948 5.94317C8.67944 5.94306 8.6794 5.94296 8.67936 5.94285C8.67931 5.94275 8.67927 5.94264 8.67923 5.94254C8.67919 5.94243 8.67915 5.94233 8.67911 5.94222C8.67907 5.94212 8.67903 5.94201 8.67899 5.9419C8.67895 5.9418 8.6789 5.94169 8.67886 5.94159C8.67882 5.94148 8.67878 5.94138 8.67874 5.94127C8.6787 5.94117 8.67866 5.94106 8.67862 5.94096C8.67858 5.94085 8.67853 5.94074 8.67849 5.94064C8.67845 5.94053 8.67841 5.94043 8.67837 5.94032C8.67833 5.94022 8.67829 5.94011 8.67825 5.94001C8.67821 5.9399 8.67817 5.9398 8.67812 5.93969C8.67808 5.93958 8.67804 5.93948 8.678 5.93937C8.67796 5.93927 8.67792 5.93916 8.67788 5.93906C8.67784 5.93895 8.6778 5.93885 8.67776 5.93874C8.67771 5.93863 8.67767 5.93853 8.67763 5.93842C8.67759 5.93832 8.67755 5.93821 8.67751 5.93811C8.67747 5.938 8.67743 5.9379 8.67739 5.93779C8.67735 5.93769 8.6773 5.93758 8.67726 5.93747C8.67722 5.93737 8.67718 5.93726 8.67714 5.93716C8.6771 5.93705 8.67706 5.93695 8.67702 5.93684C8.67698 5.93674 8.67694 5.93663 8.67689 5.93653C8.67685 5.93642 8.67681 5.93631 8.67677 5.93621C8.67673 5.9361 8.67669 5.936 8.67665 5.93589C8.67661 5.93579 8.67657 5.93568 8.67653 5.93558C8.67648 5.93547 8.67644 5.93537 8.6764 5.93526C8.67636 5.93515 8.67632 5.93505 8.67628 5.93494C8.67624 5.93484 8.6762 5.93473 8.67616 5.93463C8.67612 5.93452 8.67607 5.93442 8.67603 5.93431C8.67599 5.93421 8.67595 5.9341 8.67591 5.93399C8.67587 5.93389 8.67583 5.93378 8.67579 5.93368C8.67575 5.93357 8.6757 5.93347 8.67566 5.93336C8.67562 5.93326 8.67558 5.93315 8.67554 5.93304C8.6755 5.93294 8.67546 5.93283 8.67542 5.93273C8.67538 5.93262 8.67534 5.93252 8.67529 5.93241C8.67525 5.93231 8.67521 5.9322 8.67517 5.9321C8.67513 5.93199 8.67509 5.93188 8.67505 5.93178C8.67501 5.93167 8.67497 5.93157 8.67493 5.93146C8.67488 5.93136 8.67484 5.93125 8.6748 5.93115C8.67476 5.93104 8.67472 5.93094 8.67468 5.93083C8.67464 5.93072 8.6746 5.93062 8.67456 5.93051C8.67452 5.93041 8.67447 5.9303 8.67443 5.9302C8.67439 5.93009 8.67435 5.92999 8.67431 5.92988C8.67427 5.92978 8.67423 5.92967 8.67419 5.92956C8.67415 5.92946 8.67411 5.92935 8.67406 5.92925C8.67402 5.92914 8.67398 5.92904 8.67394 5.92893C8.6739 5.92883 8.67386 5.92872 8.67382 5.92862C8.67378 5.92851 8.67374 5.9284 8.6737 5.9283C8.67365 5.92819 8.67361 5.92809 8.67357 5.92798C8.67353 5.92788 8.67349 5.92777 8.67345 5.92767C8.67341 5.92756 8.67337 5.92745 8.67333 5.92735C8.67329 5.92724 8.67324 5.92714 8.6732 5.92703C8.67316 5.92693 8.67312 5.92682 8.67308 5.92672C8.67304 5.92661 8.673 5.92651 8.67296 5.9264C8.67292 5.92629 8.67287 5.92619 8.67283 5.92608C8.67279 5.92598 8.67275 5.92587 8.67271 5.92577C8.67267 5.92566 8.67263 5.92556 8.67259 5.92545C8.67255 5.92535 8.67251 5.92524 8.67246 5.92513C8.67242 5.92503 8.67238 5.92492 8.67234 5.92482C8.6723 5.92471 8.67226 5.92461 8.67222 5.9245C8.67218 5.9244 8.67214 5.92429 8.6721 5.92419C8.67205 5.92408 8.67201 5.92397 8.67197 5.92387C8.67193 5.92376 8.67189 5.92366 8.67185 5.92355C8.67181 5.92345 8.67177 5.92334 8.67173 5.92324C8.67169 5.92313 8.67164 5.92303 8.6716 5.92292C8.67156 5.92281 8.67152 5.92271 8.67148 5.9226C8.67144 5.9225 8.6714 5.92239 8.67136 5.92229C8.67132 5.92218 8.67128 5.92208 8.67123 5.92197C8.67119 5.92186 8.67115 5.92176 8.67111 5.92165C8.67107 5.92155 8.67103 5.92144 8.67099 5.92134C8.67095 5.92123 8.67091 5.92113 8.67087 5.92102C8.67082 5.92092 8.67078 5.92081 8.67074 5.9207C8.6707 5.9206 8.67066 5.92049 8.67062 5.92039C8.67058 5.92028 8.67054 5.92018 8.6705 5.92007C8.67045 5.91997 8.67041 5.91986 8.67037 5.91976C8.67033 5.91965 8.67029 5.91954 8.67025 5.91944C8.67021 5.91933 8.67017 5.91923 8.67013 5.91912C8.67009 5.91902 8.67004 5.91891 8.67 5.91881C8.66996 5.9187 8.66992 5.9186 8.66988 5.91849C8.66984 5.91838 8.6698 5.91828 8.66976 5.91817C8.66972 5.91807 8.66968 5.91796 8.66963 5.91786C8.66959 5.91775 8.66955 5.91765 8.66951 5.91754C8.66947 5.91744 8.66943 5.91733 8.66939 5.91722C8.66935 5.91712 8.66931 5.91701 8.66927 5.91691C8.66922 5.9168 8.66918 5.9167 8.66914 5.91659C8.6691 5.91649 8.66906 5.91638 8.66902 5.91628C8.66898 5.91617 8.66894 5.91606 8.6689 5.91596C8.66886 5.91585 8.66881 5.91575 8.66877 5.91564C8.66873 5.91554 8.66869 5.91543 8.66865 5.91533C8.66861 5.91522 8.66857 5.91511 8.66853 5.91501C8.66849 5.9149 8.66845 5.9148 8.6684 5.91469C8.66836 5.91459 8.66832 5.91448 8.66828 5.91438C8.66824 5.91427 8.6682 5.91417 8.66816 5.91406C8.66812 5.91395 8.66808 5.91385 8.66804 5.91374C8.66799 5.91364 8.66795 5.91353 8.66791 5.91343C8.66787 5.91332 8.66783 5.91322 8.66779 5.91311C8.66775 5.91301 8.66771 5.9129 8.66767 5.91279C8.66762 5.91269 8.66758 5.91258 8.66754 5.91248C8.6675 5.91237 8.66746 5.91227 8.66742 5.91216C8.66738 5.91206 8.66734 5.91195 8.6673 5.91185C8.66726 5.91174 8.66721 5.91163 8.66717 5.91153C8.66713 5.91142 8.66709 5.91132 8.66705 5.91121C8.66701 5.91111 8.66697 5.911 8.66693 5.9109C8.66689 5.91079 8.66685 5.91069 8.6668 5.91058C8.66676 5.91047 8.66672 5.91037 8.66668 5.91026C8.66664 5.91016 8.6666 5.91005 8.66656 5.90995C8.66652 5.90984 8.66648 5.90974 8.66644 5.90963C8.66639 5.90953 8.66635 5.90942 8.66631 5.90931C8.66627 5.90921 8.66623 5.9091 8.66619 5.909C8.66615 5.90889 8.66611 5.90879 8.66607 5.90868C8.66603 5.90858 8.66598 5.90847 8.66594 5.90837C8.6659 5.90826 8.66586 5.90815 8.66582 5.90805C8.66578 5.90794 8.66574 5.90784 8.6657 5.90773C8.66566 5.90763 8.66562 5.90752 8.66557 5.90742C8.66553 5.90731 8.66549 5.90721 8.66545 5.9071C8.66541 5.90699 8.66537 5.90689 8.66533 5.90678C8.66529 5.90668 8.66525 5.90657 8.66521 5.90647C8.66516 5.90636 8.66512 5.90626 8.66508 5.90615C8.66504 5.90604 8.665 5.90594 8.66496 5.90583C8.66492 5.90573 8.66488 5.90562 8.66484 5.90552C8.66479 5.90541 8.66475 5.90531 8.66471 5.9052C8.66467 5.9051 8.66463 5.90499 8.66459 5.90488C8.66455 5.90478 8.66451 5.90467 8.66447 5.90457C8.66443 5.90446 8.66438 5.90436 8.66434 5.90425C8.6643 5.90415 8.66426 5.90404 8.66422 5.90394C8.66418 5.90383 8.66414 5.90372 8.6641 5.90362C8.66406 5.90351 8.66402 5.90341 8.66397 5.9033C8.66393 5.9032 8.66389 5.90309 8.66385 5.90299C8.66381 5.90288 8.66377 5.90278 8.66373 5.90267C8.66369 5.90256 8.66365 5.90246 8.66361 5.90235C8.66356 5.90225 8.66352 5.90214 8.66348 5.90204C8.66344 5.90193 8.6634 5.90183 8.66336 5.90172C8.66332 5.90162 8.66328 5.90151 8.66324 5.9014C8.6632 5.9013 8.66315 5.90119 8.66311 5.90109C8.66307 5.90098 8.66303 5.90088 8.66299 5.90077C8.66295 5.90067 8.66291 5.90056 8.66287 5.90045C8.66283 5.90035 8.66279 5.90024 8.66274 5.90014C8.6627 5.90003 8.66266 5.89993 8.66262 5.89982C8.66258 5.89972 8.66254 5.89961 8.6625 5.89951C8.66246 5.8994 8.66242 5.89929 8.66237 5.89919C8.66233 5.89908 8.66229 5.89898 8.66225 5.89887C8.66221 5.89877 8.66217 5.89866 8.66213 5.89856C8.66209 5.89845 8.66205 5.89835 8.66201 5.89824C8.66196 5.89813 8.66192 5.89803 8.66188 5.89792C8.66184 5.89782 8.6618 5.89771 8.66176 5.89761C8.66172 5.8975 8.66168 5.8974 8.66164 5.89729C8.6616 5.89719 8.66155 5.89708 8.66151 5.89697C8.66147 5.89687 8.66143 5.89676 8.66139 5.89666C8.66135 5.89655 8.66131 5.89645 8.66127 5.89634C8.66123 5.89624 8.66119 5.89613 8.66114 5.89603C8.6611 5.89592 8.66106 5.89581 8.66102 5.89571C8.66098 5.8956 8.66094 5.8955 8.6609 5.89539C8.66086 5.89529 8.66082 5.89518 8.66078 5.89508C8.66073 5.89497 8.66069 5.89487 8.66065 5.89476C8.66061 5.89465 8.66057 5.89455 8.66053 5.89444C8.66049 5.89434 8.66045 5.89423 8.66041 5.89413C8.66037 5.89402 8.66032 5.89392 8.66028 5.89381C8.66024 5.8937 8.6602 5.8936 8.66016 5.89349C8.66012 5.89339 8.66008 5.89328 8.66004 5.89318C8.66 5.89307 8.65995 5.89297 8.65991 5.89286C8.65987 5.89276 8.65983 5.89265 8.65979 5.89254C8.65975 5.89244 8.65971 5.89233 8.65967 5.89223C8.65963 5.89212 8.65959 5.89202 8.65954 5.89191C8.6595 5.89181 8.65946 5.8917 8.65942 5.8916C8.65938 5.89149 8.65934 5.89138 8.6593 5.89128C8.65926 5.89117 8.65922 5.89107 8.65918 5.89096C8.65913 5.89086 8.65909 5.89075 8.65905 5.89065C8.65901 5.89054 8.65897 5.89044 8.65893 5.89033C8.65889 5.89022 8.65885 5.89012 8.65881 5.89001C8.65877 5.88991 8.65872 5.8898 8.65868 5.8897C8.65864 5.88959 8.6586 5.88949 8.65856 5.88938C8.65852 5.88928 8.65848 5.88917 8.65844 5.88906C8.6584 5.88896 8.65836 5.88885 8.65831 5.88875C8.65827 5.88864 8.65823 5.88854 8.65819 5.88843C8.65815 5.88833 8.65811 5.88822 8.65807 5.88811C8.65803 5.88801 8.65799 5.8879 8.65795 5.8878C8.6579 5.88769 8.65786 5.88759 8.65782 5.88748C8.65778 5.88738 8.65774 5.88727 8.6577 5.88717C8.65766 5.88706 8.65762 5.88695 8.65758 5.88685C8.65754 5.88674 8.65749 5.88664 8.65745 5.88653C8.65741 5.88643 8.65737 5.88632 8.65733 5.88622C8.65729 5.88611 8.65725 5.88601 8.65721 5.8859C8.65717 5.88579 8.65712 5.88569 8.65708 5.88558C8.65704 5.88548 8.657 5.88537 8.65696 5.88527C8.65692 5.88516 8.65688 5.88506 8.65684 5.88495C8.6568 5.88485 8.65676 5.88474 8.65671 5.88463C8.65667 5.88453 8.65663 5.88442 8.65659 5.88432C8.65655 5.88421 8.65651 5.88411 8.65647 5.884C8.65643 5.8839 8.65639 5.88379 8.65635 5.88369C8.6563 5.88358 8.65626 5.88347 8.65622 5.88337C8.65618 5.88326 8.65614 5.88316 8.6561 5.88305C8.65606 5.88295 8.65602 5.88284 8.65598 5.88274C8.65594 5.88263 8.65589 5.88253 8.65585 5.88242C8.65581 5.88231 8.65577 5.88221 8.65573 5.8821C8.65569 5.882 8.65565 5.88189 8.65561 5.88179C8.65557 5.88168 8.65553 5.88158 8.65548 5.88147C8.65544 5.88137 8.6554 5.88126 8.65536 5.88115C8.65532 5.88105 8.65528 5.88094 8.65524 5.88084C8.6552 5.88073 8.65516 5.88063 8.65512 5.88052C8.65507 5.88042 8.65503 5.88031 8.65499 5.88021C8.65495 5.8801 8.65491 5.87999 8.65487 5.87989C8.65483 5.87978 8.65479 5.87968 8.65475 5.87957C8.6547 5.87947 8.65466 5.87936 8.65462 5.87926C8.65458 5.87915 8.65454 5.87904 8.6545 5.87894C8.65446 5.87883 8.65442 5.87873 8.65438 5.87862C8.65434 5.87852 8.65429 5.87841 8.65425 5.87831C8.65421 5.8782 8.65417 5.8781 8.65413 5.87799C8.65409 5.87788 8.65405 5.87778 8.65401 5.87767C8.65397 5.87757 8.65393 5.87746 8.65388 5.87736C8.65384 5.87725 8.6538 5.87715 8.65376 5.87704C8.65372 5.87694 8.65368 5.87683 8.65364 5.87672C8.6536 5.87662 8.65356 5.87651 8.65352 5.87641C8.65347 5.8763 8.65343 5.8762 8.65339 5.87609C8.65335 5.87599 8.65331 5.87588 8.65327 5.87578C8.65323 5.87567 8.65319 5.87556 8.65315 5.87546C8.65311 5.87535 8.65306 5.87525 8.65302 5.87514C8.65298 5.87504 8.65294 5.87493 8.6529 5.87483C8.65286 5.87472 8.65282 5.87462 8.65278 5.87451C8.65274 5.8744 8.6527 5.8743 8.65265 5.87419C8.65261 5.87409 8.65257 5.87398 8.65253 5.87388C8.65249 5.87377 8.65245 5.87367 8.65241 5.87356C8.65237 5.87346 8.65233 5.87335 8.65228 5.87324C8.65224 5.87314 8.6522 5.87303 8.65216 5.87293C8.65212 5.87282 8.65208 5.87272 8.65204 5.87261C8.652 5.87251 8.65196 5.8724 8.65192 5.87229C8.65187 5.87219 8.65183 5.87208 8.65179 5.87198C8.65175 5.87187 8.65171 5.87177 8.65167 5.87166C8.65163 5.87156 8.65159 5.87145 8.65155 5.87135C8.65151 5.87124 8.65146 5.87113 8.65142 5.87103C8.65138 5.87092 8.65134 5.87082 8.6513 5.87071C8.65126 5.87061 8.65122 5.8705 8.65118 5.8704C8.65114 5.87029 8.6511 5.87019 8.65105 5.87008C8.65101 5.86997 8.65097 5.86987 8.65093 5.86976C8.65089 5.86966 8.65085 5.86955 8.65081 5.86945C8.65077 5.86934 8.65073 5.86924 8.65069 5.86913C8.65064 5.86903 8.6506 5.86892 8.65056 5.86881C8.65052 5.86871 8.65048 5.8686 8.65044 5.8685C8.6504 5.86839 8.65036 5.86829 8.65032 5.86818C8.65028 5.86808 8.65023 5.86797 8.65019 5.86787C8.65015 5.86776 8.65011 5.86765 8.65007 5.86755C8.65003 5.86744 8.64999 5.86734 8.64995 5.86723C8.64991 5.86713 8.64987 5.86702 8.64982 5.86692C8.64978 5.86681 8.64974 5.8667 8.6497 5.8666C8.64966 5.86649 8.64962 5.86639 8.64958 5.86628C8.64954 5.86618 8.6495 5.86607 8.64945 5.86597C8.64941 5.86586 8.64937 5.86576 8.64933 5.86565C8.64929 5.86554 8.64925 5.86544 8.64921 5.86533C8.64917 5.86523 8.64913 5.86512 8.64909 5.86502C8.64904 5.86491 8.649 5.86481 8.64896 5.8647C8.64892 5.8646 8.64888 5.86449 8.64884 5.86438C8.6488 5.86428 8.64876 5.86417 8.64872 5.86407C8.64868 5.86396 8.64863 5.86386 8.64859 5.86375C8.64855 5.86365 8.64851 5.86354 8.64847 5.86344C8.64843 5.86333 8.64839 5.86322 8.64835 5.86312C8.64831 5.86301 8.64827 5.86291 8.64822 5.8628C8.64818 5.8627 8.64814 5.86259 8.6481 5.86249C8.64806 5.86238 8.64802 5.86228 8.64798 5.86217C8.64794 5.86206 8.6479 5.86196 8.64786 5.86185C8.64781 5.86175 8.64777 5.86164 8.64773 5.86154C8.64769 5.86143 8.64765 5.86133 8.64761 5.86122C8.64757 5.86111 8.64753 5.86101 8.64749 5.8609C8.64745 5.8608 8.6474 5.86069 8.64736 5.86059C8.64732 5.86048 8.64728 5.86038 8.64724 5.86027C8.6472 5.86017 8.64716 5.86006 8.64712 5.85995C8.64708 5.85985 8.64703 5.85974 8.64699 5.85964C8.64695 5.85953 8.64691 5.85943 8.64687 5.85932C8.64683 5.85922 8.64679 5.85911 8.64675 5.85901C8.64671 5.8589 8.64667 5.85879 8.64662 5.85869C8.64658 5.85858 8.64654 5.85848 8.6465 5.85837C8.64646 5.85827 8.64642 5.85816 8.64638 5.85806C8.64634 5.85795 8.6463 5.85785 8.64626 5.85774C8.64621 5.85763 8.64617 5.85753 8.64613 5.85742C8.64609 5.85732 8.64605 5.85721 8.64601 5.85711L6.782 6.582ZM6.845 6.744L4.98099 7.46889C4.8878 7.22927 4.86618 7.00652 4.87406 6.83318L6.872 6.924L8.86994 7.01482C8.88382 6.70948 8.8442 6.36673 8.70901 6.01911L6.845 6.744ZM6.872 6.924H4.872C4.872 6.71276 4.91401 6.48403 5.01258 6.26036C5.11004 6.03919 5.24212 5.86963 5.36878 5.74784L6.755 7.1895L8.14122 8.63116C8.58472 8.20472 8.872 7.60594 8.872 6.924H6.872ZM6.755 7.1895L5.34079 5.77529C5.51363 5.60245 5.72286 5.47088 5.94892 5.3899C6.16785 5.31148 6.3618 5.29475 6.50111 5.29807L6.4535 7.2975L6.40589 9.29693C6.96732 9.3103 7.63518 9.13774 8.16921 8.60371L6.755 7.1895ZM6.4535 7.2975V5.2975C6.64403 5.2975 6.88079 5.3358 7.1251 5.45319C7.3707 5.57121 7.5547 5.73596 7.68111 5.89724L6.107 7.131L4.53289 8.36476C5.00823 8.97123 5.71005 9.2975 6.4535 9.2975V7.2975ZM6.107 7.131L7.6969 5.91765C7.97987 6.28844 7.9933 6.64844 7.98781 6.76565L5.99 6.672L3.99219 6.57835C3.9687 7.07956 4.06013 7.74556 4.5171 8.34435L6.107 7.131ZM5.99 6.672L7.98916 6.72995C7.9873 6.79407 7.97669 6.87629 7.94814 6.96873C7.91932 7.06201 7.87703 7.15001 7.8251 7.2279L6.161 6.1185L4.4969 5.0091C4.16741 5.50334 4.00699 6.057 3.99084 6.61405L5.99 6.672ZM6.161 6.1185L7.82044 7.23485C7.69007 7.42866 7.53251 7.5247 7.45235 7.5602L6.6425 5.7315L5.83265 3.9028C5.33249 4.1243 4.85393 4.47834 4.50156 5.00215L6.161 6.1185ZM6.6425 5.7315L7.45235 7.5602C7.39295 7.5865 7.35435 7.59406 7.34825 7.59516C7.3427 7.59616 7.36328 7.592 7.4165 7.592V5.592V3.592C6.91952 3.592 6.36743 3.66597 5.83265 3.9028L6.6425 5.7315ZM7.8755 11.3295L5.9579 10.7613C5.88947 10.9923 5.67069 11.8319 6.23562 12.6479L7.88 11.5095L9.52438 10.3711C9.78489 10.7474 9.85158 11.1286 9.858 11.3853C9.86413 11.6303 9.81829 11.8126 9.7931 11.8977L7.8755 11.3295ZM7.88 11.5095L6.23562 12.6479C6.63191 13.2203 7.18566 13.4489 7.55176 13.5361L8.015 11.5905L8.47824 9.64489C8.71834 9.70205 9.1821 9.87666 9.52438 10.3711L7.88 11.5095ZM8.015 11.5905L7.61768 13.5506L7.95068 13.6181L8.348 11.658L8.74532 9.69786L8.41232 9.63036L8.015 11.5905ZM8.348 11.658L7.73099 13.5604C7.62391 13.5257 7.28501 13.4046 6.97578 13.0579C6.59056 12.6259 6.43499 12.05 6.52162 11.5085L8.4965 11.8245L10.4714 12.1405C10.57 11.524 10.3957 10.8828 9.96097 10.3954C9.60224 9.99319 9.18309 9.82628 8.96501 9.75555L8.348 11.658ZM8.4965 11.8245L6.51863 11.5278C6.55239 11.3028 6.63625 11.0442 6.80315 10.7938C6.97095 10.5421 7.1825 10.3591 7.39246 10.2356L8.4065 11.9595L9.42054 13.6834C10.0068 13.3385 10.3785 12.7604 10.4744 12.1212L8.4965 11.8245ZM8.4065 11.9595L7.42598 10.2163C7.78571 10.014 8.10103 10 8.213 10V12V14C8.48697 14 8.93129 13.959 9.38702 13.7027L8.4065 11.9595ZM8.213 12V10H6.278V12V14H8.213V12ZM6.278 12V10C6.35901 10 6.50455 10.0069 6.68574 10.0546C6.86954 10.103 7.13025 10.2043 7.38737 10.4186L6.107 11.955L4.82663 13.4914C5.3936 13.9639 6.01889 14 6.278 14V12ZM6.107 11.955L7.38737 10.4186C7.58769 10.5855 7.78084 10.8197 7.90956 11.124C8.0375 11.4264 8.06879 11.7198 8.05361 11.9628L6.0575 11.838L4.06139 11.7132C4.01987 12.3776 4.28596 13.0409 4.82663 13.4914L6.107 11.955ZM6.0575 11.838L8.05405 11.9554C8.04104 12.1765 7.98443 12.4327 7.85101 12.69C7.7166 12.9492 7.53363 13.1527 7.33992 13.3017L6.1205 11.7165L4.90108 10.1313C4.38279 10.5299 4.09651 11.1161 4.06095 11.7206L6.0575 11.838ZM6.1205 11.7165L7.41238 13.2433C7.16654 13.4513 6.92908 13.5355 6.80424 13.5695L6.278 11.64L5.75176 9.71047C5.49492 9.78052 5.15246 9.9157 4.82862 10.1897L6.1205 11.7165ZM6.278 11.64L6.6483 13.6054L6.9588 13.5469L6.5885 11.5815L6.2182 9.61608L5.9077 9.67458L6.278 11.64ZM6.5885 11.5815L6.98073 13.5427C7.39216 13.4604 7.82553 13.2629 8.18721 12.9012L6.773 11.487L5.35879 10.0728C5.62447 9.8071 5.93484 9.67262 6.19627 9.62034L6.5885 11.5815ZM6.773 11.487L8.2294 12.8577C8.55923 12.5073 8.71704 12.1215 8.79739 11.8731L6.8945 11.2575L4.99161 10.6419C5.00278 10.6074 5.02672 10.5407 5.0718 10.4556C5.11647 10.3712 5.193 10.2476 5.3166 10.1163L6.773 11.487ZM6.8945 11.2575L8.80892 11.8363C8.85272 11.6914 8.90727 11.5035 8.97153 11.277L7.0475 10.731L5.12347 10.185C5.06173 10.4025 5.01428 10.5656 4.98008 10.6787L6.8945 11.2575ZM7.0475 10.731L8.97153 11.277C9.03663 11.0476 9.10884 10.7879 9.18806 10.4985L7.259 9.9705L5.32994 9.44255C5.25316 9.72309 5.18437 9.97039 5.12347 10.185L7.0475 10.731ZM7.259 9.9705L9.18806 10.4985C9.26561 10.2151 9.34769 9.9166 9.43432 9.60295L7.5065 9.0705L5.57868 8.53805C5.49131 8.8544 5.40839 9.1559 5.32994 9.44255L7.259 9.9705ZM7.5065 9.0705L9.43091 9.61514C9.52408 9.28594 9.61417 8.95665 9.70118 8.62728L7.7675 8.1165L5.83382 7.60572C5.75283 7.91235 5.66892 8.21906 5.58209 8.52586L7.5065 9.0705ZM7.7675 8.1165L9.69786 8.63968C9.78489 8.31858 9.86742 8.01396 9.94545 7.72583L8.015 7.203L6.08455 6.68017C6.00658 6.96804 5.92411 7.27242 5.83714 7.59332L7.7675 8.1165ZM8.015 7.203L9.94175 7.73931C10.0235 7.44578 10.0964 7.18133 10.1605 6.94624L8.231 6.42L6.30147 5.89376C6.23959 6.12067 6.16854 6.37822 6.08825 6.66669L8.015 7.203ZM8.231 6.42L10.1559 6.96292C10.2223 6.72749 10.2758 6.53634 10.3161 6.39067L8.3885 5.8575L6.46088 5.32433C6.42317 5.46066 6.3717 5.64451 6.3061 5.87708L8.231 6.42ZM8.3885 5.8575L8.00905 7.82117L8.94055 8.00117L9.32 6.0375L9.69945 4.07383L8.76795 3.89383L8.3885 5.8575ZM9.32 6.0375L7.4 5.4775C7.35565 5.62956 7.29986 5.8249 7.2331 6.06158L9.158 6.6045L11.0829 7.14742C11.1481 6.9161 11.2004 6.73344 11.24 6.5975L9.32 6.0375ZM9.158 6.6045L7.23495 6.05506C7.16531 6.29882 7.09035 6.57064 7.01019 6.8697L8.942 7.3875L10.8738 7.9053C10.9496 7.62236 11.0187 7.37218 11.081 7.15394L9.158 6.6045ZM8.942 7.3875L7.01155 6.86467C6.93404 7.15086 6.85199 7.4522 6.76539 7.76873L8.6945 8.2965L10.6236 8.82427C10.711 8.5048 10.794 8.20014 10.8725 7.91033L8.942 7.3875ZM8.6945 8.2965L6.76668 7.76405C6.67854 8.08317 6.5919 8.40084 6.50677 8.71705L8.438 9.237L10.3692 9.75695C10.4521 9.44916 10.5365 9.13983 10.6223 8.82895L8.6945 8.2965ZM8.438 9.237L6.50804 8.71235C6.42403 9.02141 6.34451 9.31397 6.26949 9.59004L8.1995 10.1145L10.1295 10.639C10.2045 10.363 10.284 10.0706 10.368 9.76165L8.438 9.237ZM8.1995 10.1145L6.26427 9.60966C6.19304 9.8827 6.12964 10.123 6.07398 10.331L8.006 10.848L9.93802 11.365C9.99636 11.147 10.062 10.8983 10.1347 10.6193L8.1995 10.1145ZM8.006 10.848L6.07584 10.3241C6.01878 10.5343 5.97506 10.6956 5.94477 10.8077L7.8755 11.3295L9.80623 11.8513C9.83594 11.7414 9.87922 11.5817 9.93616 11.3719L8.006 10.848Z" fill="black" mask="url(#path-1-outside-1_1325_4)"/>
</g>
</g>
<defs>
<filter id="filter0_d_1325_4" x="2.98877" y="2.14203" width="11.4058" height="12.858" filterUnits="userSpaceOnUse" color-interpolation-filters="sRGB">
<feFlood flood-opacity="0" result="BackgroundImageFix"/>
<feColorMatrix in="SourceAlpha" type="matrix" values="0 0 0 0 0 0 0 0 0 0 0 0 0 0 0 0 0 0 127 0" result="hardAlpha"/>
<feOffset/>
<feGaussianBlur stdDeviation="0.5"/>
<feComposite in2="hardAlpha" operator="out"/>
<feColorMatrix type="matrix" values="0 0 0 0 0.909804 0 0 0 0 1 0 0 0 0 0.360784 0 0 0 1 0"/>
<feBlend mode="normal" in2="BackgroundImageFix" result="effect1_dropShadow_1325_4"/>
<feBlend mode="normal" in="SourceGraphic" in2="effect1_dropShadow_1325_4" result="shape"/>
</filter>
<clipPath id="clip0_1325_4">
<rect width="16" height="16" fill="white"/>
</clipPath>
</defs>
</svg>
