<?xml version="1.0" encoding="utf-8" ?><svg xmlns="http://www.w3.org/2000/svg" xmlns:xlink="http://www.w3.org/1999/xlink" width="1536" height="1024" viewBox="0 0 1536 1024"><path fill="#FFFFFE" d="M0 0L1536 0L1536 1024L0 1024L0 0Z"/><path fill="#082A46" d="M310.733 429.057L447.768 429.018C469.907 429.022 497.821 429.916 519.275 428.846C523.377 423.827 518.714 415.639 531.835 418.264C537.979 416.785 536.891 409.915 545.336 417.427C549.329 417.355 551.586 412.786 556.142 418.22C557.867 420.277 562.987 420.491 565.634 420.563C567.9 422.156 569.118 426.437 569.753 429.067L590.988 429.064L590.969 444.992C584.367 444.933 576.654 444.69 570.173 445.184C569.116 454.769 567.714 458.002 562.274 465.937C561.895 486.831 576.476 585.664 532.889 583.111C513.436 581.972 493.522 543.761 485.931 525.946C483.716 538.671 480.058 551.409 478.045 564.371C475.66 579.736 476.511 592.243 477.171 607.636C444.896 620.291 387.32 618.229 354.178 607.508C355.906 570.547 354.495 562.513 345.321 526.364C334.875 552.321 297.581 615.997 274.129 564.057C262.054 537.314 268.667 495.44 269.239 466.052C263.417 458.115 262.366 454.852 261.263 445.121C256.716 445.174 252.011 445.083 247.449 445.058C243.984 444.902 242.943 445.511 240.55 443.611C238.77 439.805 239.732 433.685 239.951 429.067L261.918 429.018C264.57 418.835 264.93 421.279 273.691 419.424C275.988 418.938 276.247 415.938 280.496 415.815C285.729 417.565 284.833 418.16 289.667 414.546C293.899 413.784 294.945 415.366 297.911 418.064C303.371 418.789 304.626 415.586 308.436 419.92C310.385 422.138 310.456 426.065 310.733 429.057Z"/><path fill="#FFFFFE" d="M316.896 445.245C382.678 444.348 449.859 445.355 515.816 445.11C518.237 456.791 522.497 459.247 531.808 466.152C531.222 478.104 529.131 489.934 525.584 501.362C522.846 489.726 519.089 487.399 517.342 480.944C514.07 468.858 516.502 468.653 510.352 455.509C509.471 453.721 509.474 453.778 508.069 452.338C488.53 451.47 464.574 452.264 444.663 452.263L323.465 452.294C315.662 464.94 316.293 476.036 310.332 489.186C308.596 493.015 307.302 497.412 306.076 501.459C302.692 498.102 300.081 472.155 299.844 466.078C308.684 459.317 312.984 456.973 315.392 445.935L316.896 445.245Z"/><path fill="#5BA543" d="M1091.3 160.862C1099.82 159.8 1120.36 160.721 1129.04 161.5C1198.35 168.409 1262.12 202.455 1306.43 256.209C1351.59 310.541 1373.53 380.481 1367.51 450.879C1364 487.512 1353.03 523.038 1335.26 555.264C1331.61 562 1325.97 575.558 1316.57 573.441C1314.29 572.928 1312.34 571.446 1311.24 569.382C1308.48 564.123 1312.31 557.866 1315.1 553.444C1326.68 535.155 1334.98 515.375 1340.95 494.477C1358.86 431.204 1350.88 363.406 1318.78 306.019C1286.88 248.544 1233.58 206.003 1170.47 187.66C1083.82 163.224 990.97 189.711 928.505 254.003C897.287 286.134 877.635 322.828 865.765 365.747C853.553 412.925 855.618 462.668 871.698 508.672C893.469 571.009 939.287 622.033 998.924 650.352C1057.88 678.555 1127.31 682.515 1188.7 659.711C1197.76 653.743 1208.49 666.602 1201.77 672.057C1187.21 683.877 1138.31 690.935 1122.39 692.017C1051.99 696.333 982.739 672.645 929.728 626.114C877.269 580.004 845.173 515.012 840.442 445.32C835.808 374.067 859.777 303.908 907.036 250.392C954.089 197.2 1020.41 164.976 1091.3 160.862Z"/><path fill="#5BA543" d="M1224.4 509.37C1261.61 507.587 1293.19 536.387 1294.85 573.616C1296.5 610.845 1267.59 642.332 1230.37 643.854C1193.33 645.368 1162.04 616.631 1160.39 579.586C1158.75 542.542 1187.37 511.144 1224.4 509.37Z"/><path fill="#FFFFFE" d="M1256.33 546.088C1286.81 547.779 1235.99 588.024 1230.03 596.33C1216.16 615.65 1210.14 605.786 1197.03 592.27C1194.08 589.438 1186.37 582.95 1187.07 579.53C1191.43 558.159 1211.28 583.384 1215.47 587.708C1223.42 579.614 1249.17 550.557 1256.33 546.088Z"/><path fill="#082A46" d="M405.142 267.286C426.465 264.512 444.007 276.245 463.298 281.995C464.918 282.478 473.998 282.505 476.196 282.532L477.51 284.311C478.872 292.341 467.432 301.021 460.604 303.708C464.308 312.727 466.015 318.275 467.772 327.858L464.829 335C467.565 340.661 475.559 351.913 474.542 356.625C473.016 358.851 470.052 359.302 467.18 360.364C466.229 362.144 466.709 362.962 467.139 365.353C468.57 368.173 464.122 376.815 464.546 378.846C468.508 397.803 457.305 396.321 439.937 395.108C440.006 397.762 439.914 402.113 441.119 404.313C446.643 414.394 469.552 418.544 481.007 422.255C470.03 422.808 455.782 422.454 444.562 422.473C410.025 422.601 375.486 422.526 340.949 422.247C373.676 410.28 384.678 415.644 383.805 375.913C369.19 352.643 345.322 319.878 372.696 295.577C370.707 293.267 367.238 288.348 369.707 285.527C371.924 285.434 373.225 286.804 375.136 288.182C380.928 273.805 390.273 269.656 405.142 267.286Z"/><path fill="#0A72D4" d="M401.145 160.861L402.606 160.777C470.527 157.117 537.091 180.785 587.462 226.507C623.713 258.95 650.175 300.883 663.861 347.572C666.418 356.224 674.191 376.382 666.774 383.252C659.984 389.541 653.997 382.232 652.422 375.479C650.467 367.099 649.116 359.176 646.546 350.836C636.787 319.061 620.729 289.579 599.329 264.148C556.31 212.831 498.454 184.406 432.187 178.626C416.418 177.744 402.81 177.853 387.005 179.833C299.916 190.767 225.522 247.896 192.467 329.226C189.474 336.692 186.845 344.299 184.587 352.02C182.195 360.204 180.157 383.589 170.318 385.702C167.985 386.204 162.41 382.005 161.909 379.27C160.445 371.271 163.645 361.161 165.776 353.355C176.227 314.54 195.458 278.646 221.983 248.447C267.539 196.394 332.096 164.834 401.145 160.861Z"/><path fill="#0A72D4" d="M174.902 495.105C178.612 495.153 182.653 496.06 184.339 499.864C187.826 507.738 190.245 515.721 193.725 523.722C202.617 544.487 214.379 563.9 228.668 581.393C269.14 631.48 327.909 663.358 391.955 669.965C487.492 679.244 579.433 630.961 626.047 547.032C634.89 531.263 639.128 519.231 645.324 503.146C650.359 490.075 668.478 491.14 659.968 514.883C638.648 571.116 605.976 614.614 555.143 647.722C497.921 684.758 428.315 697.49 361.692 683.107C293.728 667.952 234.547 626.457 197.127 567.72C186.808 551.687 178.462 535.106 171.927 517.213C168.4 507.557 164.673 501.339 174.902 495.105Z"/><path fill="#14322C" d="M993.533 280.758C1003.51 280.356 1015.05 280.629 1025.14 280.629C1025.05 287.705 1025.11 293.731 1025.44 300.797C1017.49 300.883 999.191 298.797 992.381 303.806C990.678 305.059 990.568 313.248 990.565 315.899C990.5 373.567 990.532 431.239 990.524 488.909L990.529 551.783C990.532 562.414 990.395 573.125 990.718 583.71C990.846 587.906 994.253 590.12 997.998 590.256C1014.74 590.864 1032.46 590.542 1049.12 590.522L1147.68 590.533C1148.43 594.129 1149.37 597.858 1150.23 601.447L1153.6 610.644C1147.19 610.724 1140.73 610.719 1134.31 610.676C1087.34 610.357 1040.31 611.203 993.361 610.436C990.474 610.389 986.721 609.071 984.2 607.694C977.722 604.223 972.955 598.241 971.016 591.15C969.817 586.656 970.185 562.499 970.186 556.105L970.217 486.316L970.168 367.516C970.164 346.427 969.795 325.134 970.589 304.082C971.08 291.058 981.721 283.219 993.533 280.758Z"/><path fill="#14322C" d="M1103.1 226.063C1124.52 227.485 1133.95 239.463 1136.28 259.959C1153.92 261.126 1170.12 253.823 1170.73 279.775C1170.95 289.188 1172.31 307.973 1158.65 308.693C1141 309.624 1122.85 309.116 1105.12 309.064L1068.57 309.137C1052.03 309.185 1037.16 312.976 1036.22 291.241C1034.7 256.102 1043.19 260.737 1071.43 259.83C1072.3 239.795 1083.03 228.217 1103.1 226.063Z"/><path fill="#FFFFFE" d="M1100.12 244.949C1106.55 243.037 1113.3 246.724 1115.16 253.163C1117.03 259.602 1113.29 266.328 1106.84 268.147C1100.46 269.947 1093.81 266.257 1091.97 259.884C1090.12 253.511 1093.76 246.841 1100.12 244.949Z"/><path fill="#082A46" d="M270.005 734.355C293.289 734.198 335.816 727.952 339.834 759.929C341.817 775.712 336.64 784.714 322.855 792.198C328.41 802.935 338.163 818.249 344.493 828.927L325.312 828.982L322.223 828.713C318.545 825.874 305.391 800.973 302.316 795.433L290.545 795.388L290.507 828.915L269.977 828.971L270.005 734.355Z"/><path fill="#FFFFFE" d="M290.459 752.523C304.108 752.274 330.24 752.623 315.82 774.623C308.986 779.377 298.722 778.118 290.446 777.992C290.355 769.567 290.454 760.965 290.459 752.523Z"/><path fill="#14322C" d="M1181.92 280.694C1192.55 280.568 1211.51 279.111 1220.78 283.299C1227.06 286.105 1231.9 291.383 1234.15 297.882C1236.72 305.193 1236.66 492.024 1235.07 495.327C1227.74 494.845 1222.87 495.097 1215.69 495.839L1215.69 374.111C1215.7 353.898 1215.81 333.312 1215.54 313.1C1215.35 311.126 1215.16 304.935 1213.43 303.706C1206.69 298.926 1189.28 300.742 1181.42 300.798C1182.04 295.416 1181.88 286.405 1181.92 280.694Z"/><path fill="#082A46" d="M436.516 734.36C451.516 734.262 484.302 731.674 494.276 741.036C516.716 762.098 506.417 793.379 475.687 797.319L457.295 797.347L457.333 828.921L436.468 828.954L436.516 734.36Z"/><path fill="#FFFFFE" d="M457.315 752.477C464.805 752.35 472.304 751.511 479.145 755.218C487.717 759.863 486.228 768.38 481.787 775.411C474.454 780.986 466.48 779.559 457.316 779.388L457.315 752.477Z"/><path fill="#0A72D4" d="M590.988 429.064L590.889 394.32C590.865 382.345 587.808 364.024 606.237 363.141C611.552 362.886 620.016 368.692 620.335 374.34C621.284 391.137 620.894 408.346 620.901 425.244L620.892 469.439C620.885 477.449 625.978 524.159 594.214 502.517C588.932 498.919 590.994 456.817 590.953 445.404C584.026 445.419 577.098 445.346 570.173 445.184C576.654 444.69 584.367 444.933 590.969 444.992L590.988 429.064Z"/><path fill="#0A72D4" d="M247.449 445.058C245.316 445.18 243.331 445.377 241.206 445.599C236.496 451.196 243.949 492.276 237.343 501.68C232.619 508.404 222.984 510.033 216.342 505.279C213.092 502.97 210.957 499.407 210.452 495.453C209.753 489.86 210.011 478.958 210.007 473.065L210.006 435.25L210.035 397.677C210.04 390.278 209.861 382.59 210.526 375.325C211.137 368.218 219.062 362.54 226.003 363.33C238.977 364.807 240.178 374.558 240.118 385.233C240.034 399.934 240.011 414.462 239.951 429.067C239.732 433.685 238.77 439.805 240.55 443.611C242.943 445.511 243.984 444.902 247.449 445.058Z"/><path fill="#082A46" d="M357.913 734.356L418.497 734.334L418.481 752.514L378.85 752.664L378.811 772.015L413.871 772.089L413.921 789.967C407.642 790.051 383.162 788.935 379.163 790.979L378.797 793.506L378.855 810.468C392.234 810.662 405.919 810.545 419.322 810.553L419.391 828.916L357.816 828.969L357.913 734.356Z"/><path fill="#14322C" d="M1043.33 734.372C1062.84 733.981 1083.82 734.327 1103.44 734.328L1103.48 752.527L1064.18 752.605L1064.2 772.049C1075.95 771.979 1087.7 772.028 1099.45 772.195L1099.46 789.939C1094.57 789.919 1066.6 789.115 1064.37 791.024L1064.17 794.256L1064.2 810.422C1077.66 810.592 1091.36 810.478 1104.84 810.494L1104.84 828.923L1043.27 828.919L1043.33 734.372Z"/><path fill="#14322C" d="M987.859 733.058C1003.05 731.465 1015.28 734.356 1026.44 745.128C1022.87 750.413 1018.57 755.502 1014.24 760.17C993.36 741.313 969.63 757.498 989.787 768.923C1003.69 776.804 1026.35 774.218 1028.32 799.321C1028.96 806.819 1026.58 814.263 1021.71 820.001C1015.26 827.484 1006.32 829.973 996.782 830.596C979.845 830.907 970.028 826.914 957.89 815.509C962.249 810.232 966.736 805.384 971.36 800.341C979.08 808.373 995.391 818.871 1006.32 806.99C1013.88 797.407 993.491 790.563 987.963 789.208C953.249 780.7 951.229 741.342 987.859 733.058Z"/><path fill="#082A46" d="M544.793 733.033C546.32 732.875 547.851 732.766 549.385 732.705C562.955 732.225 573.451 735.842 583.327 745.112C579.154 750.757 575.997 754.786 571.357 760.037C565.113 755.065 559.483 750.812 551.107 751.206C540.612 751.467 533.139 761.886 545.566 767.841C560.388 774.942 583.539 777.728 585.052 798.414C586.523 818.528 572.395 829.324 553.591 830.586L552.973 830.597C536.787 830.798 526.249 826.843 514.672 815.605C518.387 810.84 523.727 805.12 527.828 800.501C533.559 806.234 539.39 811.069 547.852 811.752C553.446 812.204 560.162 812.034 563.298 806.38C564.3 804.589 564.532 802.467 563.941 800.502C561.603 792.603 540.096 788.367 531.482 783.487C515.134 774.227 514.255 754.286 526.75 741.275C531.256 736.584 538.137 734.567 544.793 733.033Z"/><path fill="#14322C" d="M1227.72 733.114C1229.62 732.926 1231.52 732.807 1233.43 732.755C1246.69 732.463 1257.21 735.91 1266.8 745.202C1262.63 750.789 1259.3 754.859 1254.69 760.095C1246.84 753.694 1236.87 747.227 1226.49 754.008C1224.01 755.632 1222.45 757.058 1221.86 760.084C1224.11 773.508 1270.14 773.24 1268.99 799.803C1268.08 820.642 1255.01 829.813 1235.45 830.649C1219.38 830.556 1209.7 826.567 1198.14 815.601C1202.6 810.139 1206.69 805.588 1211.47 800.403C1219.79 809.165 1227.75 813.766 1240.2 811.373C1244.31 810.584 1249.58 805.046 1247.82 801.337C1242.88 790.863 1225.93 790.156 1216.78 784.405C1210.9 781.068 1204.13 775.345 1202.71 768.108C1198.77 747.98 1210.52 737.451 1227.72 733.114Z"/><path fill="#14322C" d="M1116.45 734.379L1191.61 734.358L1191.66 752.555L1164.71 752.781L1164.71 803.513L1164.66 828.951L1143.76 828.961L1143.78 752.659L1116.43 752.59L1116.45 734.379Z"/><path fill="#5BA543" d="M1040.65 497.236C1057.29 495.313 1072.34 507.265 1074.24 523.918C1076.14 540.571 1064.17 555.607 1047.52 557.486C1030.9 559.36 1015.9 547.416 1014.01 530.794C1012.11 514.173 1024.03 499.156 1040.65 497.236Z"/><path fill="#FFFFFE" d="M1040.13 510.219C1041.24 510.16 1042.35 510.133 1043.46 510.14C1047.14 510.182 1051.3 510.965 1053.98 513.661C1056.49 518.71 1052.44 521.213 1052.06 526.434C1052.36 526.766 1052.66 527.1 1052.95 527.435C1064.91 541.038 1042.47 551.529 1033.09 540.671C1031.76 539.121 1032.39 537.681 1032.9 536.133C1039.6 533.958 1043.57 541.937 1048.34 536.369C1048.97 531.092 1046.88 530.4 1042.24 529.64L1041.35 529.497C1039.51 527.6 1039.84 528.489 1039.69 526.175C1040.93 524.616 1043.8 523.925 1045.81 523.214C1047.78 520.813 1047.2 521.946 1047.81 518.688C1044.81 514.173 1037.95 520.318 1033.06 518.657C1031.71 514.143 1036.89 511.736 1040.13 510.219Z"/><path fill="#5BA543" d="M1038.36 338.966C1054.86 335.78 1070.79 346.621 1073.9 363.135C1077 379.649 1066.08 395.535 1049.55 398.552C1033.14 401.548 1017.4 390.722 1014.32 374.326C1011.24 357.931 1021.99 342.129 1038.36 338.966Z"/><path fill="#FFFFFE" d="M1043 351.86C1045.71 351.721 1046.37 351.528 1048.88 352.334C1049.46 356.413 1050.02 383.92 1048.21 385.73C1045.19 386.116 1044.76 386.096 1041.77 385.515C1041.69 380.516 1042.74 364.403 1040.82 361.053L1036.15 362.337L1035.03 361.624C1033.85 359.284 1033.95 360.278 1034.38 357.862C1036.18 355.271 1040.11 353.48 1043 351.86Z"/><path fill="#5BA543" d="M1038.06 418.386C1048.72 416.195 1059.74 419.903 1066.91 428.095C1074.08 436.287 1076.29 447.699 1072.71 457.98C1069.13 468.26 1060.3 475.823 1049.59 477.783C1033.29 480.77 1017.61 470.069 1014.45 453.791C1011.29 437.512 1021.82 421.722 1038.06 418.386Z"/><path fill="#FFFFFE" d="M1041 430.733C1041.8 430.689 1042.6 430.67 1043.39 430.675C1055.15 430.806 1058.19 439.194 1052.56 448.401C1049.95 452.668 1046.38 455.356 1042.61 458.521C1047 458.411 1054.6 457.521 1057.32 461.622C1054.94 466.103 1045.01 465.171 1040.62 465.067C1037.88 465.187 1035.83 465.628 1033.61 464.213C1029.72 456.46 1048 449.146 1048.06 439.645C1043.98 435.188 1040.91 438.633 1037.52 441.135C1034.95 440.862 1034.41 441.025 1032.64 439.369L1032.64 437.603C1034.93 433.358 1036.83 432.423 1041 430.733Z"/><path fill="#0A72D4" d="M633.81 381.882C643.055 381.689 647.577 384.947 647.579 394.808C647.588 423.537 648.743 452.98 647.044 481.636C646.883 484.364 642.65 487.287 640.346 488.638C638.646 488.908 636.921 488.985 635.203 488.865C630.863 488.597 626.831 485.263 626.799 480.735C626.579 450.048 626.118 419.174 627.034 388.515C627.115 385.802 631.767 383.132 633.81 381.882Z"/><path fill="#0A72D4" d="M191.29 381.954C198.077 381.379 204.4 383.402 204.341 391.264C204.11 421.946 205.044 452.841 203.92 483.449C203.845 485.497 199.53 487.832 197.94 488.738C188.67 489.884 183.623 485.808 183.469 476.169C183.238 452.762 183.31 429.315 183.299 405.898C183.293 394.702 180.846 388.077 191.29 381.954Z"/><path fill="#5BA543" d="M1096.18 439.773L1152.34 439.569C1162.49 439.555 1172.71 439.36 1182.85 439.813C1193.28 440.278 1195.04 450.446 1186.12 455.679C1158.63 457.451 1128.33 455.191 1100.61 455.783C1089.11 456.028 1086.9 445.296 1096.18 439.773Z"/><path fill="#5BA543" d="M1179.87 360.451C1196.38 360.289 1194.32 375.235 1184.25 376.465C1178.08 377.219 1164.63 376.714 1157.83 376.706L1102.31 376.637C1085.56 376.804 1088.53 361.644 1098.27 360.703C1105.29 360.024 1118.13 360.419 1125.58 360.441C1143.67 360.546 1161.77 360.549 1179.87 360.451Z"/><path fill="#5BA543" d="M1095.54 519.173C1105.2 518.642 1153.74 517.426 1159.77 521.007C1160.78 521.606 1161.53 522.265 1161.71 523.458C1162.23 527.039 1157.68 531.897 1155.62 534.665C1152.46 535.275 1149.06 535.147 1145.82 535.143C1131.47 535.13 1117.1 535.435 1102.76 535.09C1099.28 535.006 1093.05 533.425 1091.03 530.511C1088.04 526.185 1092.32 521.731 1095.54 519.173Z"/><path fill="#0A72D4" d="M666.305 445.51C666.424 451.598 668.415 465.056 659.967 465.806C657.465 466.028 656.302 465.077 654.46 463.567C653.525 462.031 653.335 460.664 653.188 458.905C652.667 452.669 652.368 410.741 654.663 408.22C656.095 406.647 657.351 406.245 659.426 406.103C668.314 408.385 666.469 422.017 666.282 429.05C670.603 428.985 680.323 427.907 683.392 431.245C687.167 435.351 685.418 443.317 679.607 445.052C676.268 445.457 669.876 445.423 666.305 445.51Z"/><path fill="#082A46" d="M666.282 429.05C670.603 428.985 680.323 427.907 683.392 431.245C687.167 435.351 685.418 443.317 679.607 445.052C675.593 444.829 670.24 445.057 666.125 445.112C666.018 439.758 666.07 434.401 666.282 429.05Z"/><path fill="#0A72D4" d="M164.739 428.999C164.673 426.599 164.903 420.515 164.536 418.568C163.184 411.387 169.461 402.081 176.548 408.637C179.382 413.369 177.259 441.582 177.874 449.073C178.34 454.744 178.51 469.822 168.685 465.806C163.79 460.525 164.547 451.902 164.611 445.117C161.615 445.171 149.849 445.882 148.573 443.904C137.581 426.869 157.571 428.865 164.739 428.999Z"/><path fill="#082A46" d="M164.611 445.117C161.615 445.171 149.849 445.882 148.573 443.904C137.581 426.869 157.571 428.865 164.739 428.999L164.611 445.117Z"/></svg>